<svg width="54.568787" height="54.444580" viewBox="0 0 54.5688 54.4446" fill="none" xmlns="http://www.w3.org/2000/svg" xmlns:xlink="http://www.w3.org/1999/xlink">
	<desc>
			Created with Pixso.
	</desc>
	<defs/>
	<rect id="Компоненты 4" width="54.568783" height="54.444443" transform="translate(0.000000 0.000122)" fill="#FFFFFF" fill-opacity="0"/>
	<path id="Vector" d="M53.6 50.39L41.95 50.39C41.94 49.57 42.16 48.35 40.97 48.3C40.71 48.3 40.47 48.4 40.28 48.58C40.1 48.76 40 49.01 40 49.27L40 50.39L29.31 50.39L29.31 49.27C29.31 49.01 29.2 48.77 29.02 48.59C28.84 48.41 28.59 48.31 28.34 48.31C28.08 48.31 27.84 48.41 27.66 48.59C27.47 48.77 27.37 49.01 27.36 49.27L27.36 50.39L16.68 50.39L16.68 49.27C16.68 49.01 16.58 48.76 16.4 48.58C16.21 48.4 15.97 48.3 15.71 48.3C15.45 48.3 15.2 48.4 15.02 48.58C14.84 48.76 14.73 49.01 14.73 49.27L14.73 50.39L4.05 50.39L4.05 39.74L5.18 39.74C5.44 39.73 5.68 39.63 5.86 39.45C6.04 39.27 6.14 39.02 6.14 38.77C6.14 38.51 6.04 38.27 5.86 38.09C5.68 37.9 5.44 37.8 5.18 37.79L4.05 37.79L4.05 27.14L5.18 27.14C5.44 27.14 5.68 27.03 5.86 26.85C6.04 26.67 6.14 26.42 6.14 26.17C6.14 25.91 6.04 25.67 5.86 25.48C5.68 25.3 5.44 25.2 5.18 25.19L4.05 25.19L4.05 14.54L5.18 14.54C5.44 14.54 5.68 14.43 5.86 14.25C6.04 14.07 6.14 13.82 6.14 13.57C6.14 13.31 6.04 13.07 5.86 12.89C5.68 12.7 5.44 12.6 5.18 12.6L4.05 12.6L4.05 0.97C4.05 0.71 3.95 0.46 3.76 0.28C3.58 0.1 3.33 0 3.08 0C2.82 0 2.57 0.1 2.39 0.28C2.2 0.46 2.1 0.71 2.1 0.97L2.1 12.6L0.97 12.6C0.71 12.6 0.47 12.7 0.29 12.89C0.11 13.07 0.01 13.31 0.01 13.57C0.01 13.82 0.11 14.07 0.29 14.25C0.47 14.43 0.71 14.53 0.97 14.54L2.1 14.54L2.1 25.2L0.97 25.2C0.71 25.2 0.46 25.3 0.28 25.48C0.1 25.66 0 25.91 0 26.17C0.06 27.36 1.27 27.13 2.1 27.14L2.1 37.79L0.97 37.79C0.71 37.79 0.46 37.9 0.28 38.08C0.1 38.26 0 38.51 0 38.77C0 39.03 0.1 39.27 0.28 39.45C0.46 39.64 0.71 39.74 0.97 39.74L2.1 39.74L2.1 51.37C2.1 51.63 2.2 51.87 2.39 52.05C2.57 52.24 2.82 52.34 3.08 52.34L14.73 52.34L14.73 53.47C14.73 53.73 14.84 53.97 15.02 54.15C15.2 54.34 15.45 54.44 15.71 54.44C15.97 54.44 16.21 54.34 16.4 54.15C16.58 53.97 16.68 53.73 16.68 53.47L16.68 52.34L27.37 52.34L27.37 53.47C27.37 53.73 27.47 53.97 27.65 54.15C27.83 54.34 28.08 54.44 28.34 54.44C28.6 54.44 28.85 54.34 29.03 54.15C29.21 53.97 29.31 53.73 29.31 53.47L29.31 52.34L40 52.34L40 53.47C40 53.73 40.1 53.97 40.28 54.15C40.47 54.34 40.71 54.44 40.97 54.44C41.23 54.44 41.48 54.34 41.66 54.15C41.84 53.97 41.95 53.73 41.95 53.47L41.95 52.34L53.6 52.34C53.86 52.34 54.1 52.23 54.28 52.05C54.46 51.87 54.56 51.62 54.56 51.37C54.56 51.11 54.46 50.87 54.28 50.68C54.1 50.5 53.86 50.4 53.6 50.39Z" fill="#212121" fill-opacity="1.000000" fill-rule="nonzero"/>
	<path id="Vector" d="M13.59 36.8L21.39 36.8C21.65 36.8 21.9 36.7 22.08 36.52C22.26 36.33 22.36 36.09 22.36 35.83L22.36 18.33C22.36 18.07 22.26 17.82 22.08 17.64C21.9 17.46 21.65 17.36 21.39 17.36L13.59 17.36C13.33 17.36 13.08 17.46 12.9 17.64C12.72 17.82 12.62 18.07 12.62 18.33L12.62 35.83C12.62 36.09 12.72 36.33 12.9 36.52C13.08 36.7 13.33 36.8 13.59 36.8ZM14.57 19.3L20.41 19.3L20.41 34.86L14.57 34.86L14.57 19.3Z" fill="#1BD5FF" fill-opacity="1.000000" fill-rule="nonzero"/>
	<path id="Vector" d="M26.26 9.58C26 9.58 25.76 9.68 25.57 9.86C25.39 10.05 25.29 10.29 25.29 10.55L25.29 35.83C25.29 36.09 25.39 36.33 25.57 36.52C25.76 36.7 26 36.8 26.26 36.8L34.06 36.8C34.32 36.8 34.57 36.7 34.75 36.52C34.93 36.33 35.03 36.09 35.03 35.83L35.03 10.55C35.03 10.29 34.93 10.05 34.75 9.86C34.57 9.68 34.32 9.58 34.06 9.58L26.26 9.58ZM33.09 34.86L27.24 34.86L27.24 11.52L33.09 11.52L33.09 34.86Z" fill="#1BD5FF" fill-opacity="1.000000" fill-rule="nonzero"/>
	<path id="Vector" d="M37.96 18.33L37.96 35.83C37.96 36.09 38.06 36.33 38.24 36.52C38.43 36.7 38.67 36.8 38.93 36.8L46.73 36.8C46.99 36.8 47.24 36.7 47.42 36.52C47.6 36.33 47.71 36.09 47.71 35.83L47.71 18.33C47.71 18.07 47.6 17.82 47.42 17.64C47.24 17.46 46.99 17.36 46.73 17.36L38.93 17.36C38.67 17.36 38.43 17.46 38.24 17.64C38.06 17.82 37.96 18.07 37.96 18.33ZM39.91 19.3L45.76 19.3L45.76 34.86L39.91 34.86L39.91 19.3Z" fill="#1BD5FF" fill-opacity="1.000000" fill-rule="nonzero"/>
</svg>
