<svg width="55.140663" height="55.000000" viewBox="0 0 55.1407 55" fill="none" xmlns="http://www.w3.org/2000/svg" xmlns:xlink="http://www.w3.org/1999/xlink">
	<desc>
			Created with Pixso.
	</desc>
	<defs>
		<clipPath id="clip2_765">
			<rect id="Банковская карта" width="40.000000" height="37.787716" transform="translate(7.000001 9.000000)" fill="white" fill-opacity="0"/>
		</clipPath>
	</defs>
	<rect id="Компоненты 1" width="55.140656" height="55.000000" transform="translate(0.000001 0.000000)" fill="#FFFFFF" fill-opacity="0"/>
	<rect id="Прямоугольник 1" x="1.000001" y="1.000000" rx="26.500000" width="53.140663" height="53.000000" stroke="#000000" stroke-opacity="1.000000" stroke-width="2.000000"/>
	<g clip-path="url(#clip2_765)">
		<path id="path" d="M19.39 19.21L19.41 19.23C19.41 19.65 19.08 19.98 18.66 19.98C18.24 19.98 17.91 19.65 17.91 19.23L17.93 19.21L19.39 19.21ZM40.35 32.55L40.33 32.58C39.91 32.58 39.58 32.25 39.58 31.83C39.58 31.41 39.91 31.08 40.33 31.08L40.35 31.1L40.35 32.55Z" fill="#000000" fill-opacity="0" fill-rule="nonzero"/>
		<path id="path" d="M18.66 19.23L18.66 16.08C18.66 15.21 19.41 14.51 20.33 14.51L42 14.51C42.92 14.51 43.66 15.21 43.66 16.08L43.66 30.25C43.66 31.12 42.92 31.83 42 31.83L40.33 31.83" stroke="#00D3FF" stroke-opacity="1.000000" stroke-width="1.500000" stroke-linejoin="round" stroke-linecap="round"/>
		<rect id="rect" x="10.333345" y="23.957520" rx="2.000000" width="25.000000" height="17.319370" fill="#000000" fill-opacity="0"/>
		<rect id="rect" x="10.333345" y="23.957520" rx="2.000000" width="25.000000" height="17.319370" stroke="#00D3FF" stroke-opacity="1.000000" stroke-width="1.500000" stroke-linejoin="round"/>
		<path id="path" d="M10.35 31.77L10.33 31.79C9.91 31.79 9.58 31.46 9.58 31.04C9.58 30.62 9.91 30.29 10.33 30.29L10.35 30.31L10.35 31.77ZM35.31 30.31L35.33 30.29C35.75 30.29 36.08 30.62 36.08 31.04C36.08 31.46 35.75 31.79 35.33 31.79L35.31 31.77L35.31 30.31Z" fill="#000000" fill-opacity="0" fill-rule="nonzero"/>
		<path id="path" d="M10.33 31.04L35.33 31.04" stroke="#00D3FF" stroke-opacity="1.000000" stroke-width="1.500000" stroke-linejoin="round" stroke-linecap="round"/>
		<path id="path" d="M34.6 27.12L34.58 27.1C34.58 26.68 34.91 26.35 35.33 26.35C35.75 26.35 36.08 26.68 36.08 27.1L36.06 27.12L34.6 27.12ZM36.06 36.53L36.08 36.55C36.08 36.97 35.75 37.3 35.33 37.3C34.91 37.3 34.58 36.97 34.58 36.55L34.6 36.53L36.06 36.53Z" fill="#000000" fill-opacity="0" fill-rule="nonzero"/>
		<path id="path" d="M35.33 27.1L35.33 36.55" stroke="#00D3FF" stroke-opacity="1.000000" stroke-width="1.500000" stroke-linejoin="round" stroke-linecap="round"/>
		<path id="path" d="M9.6 27.12L9.58 27.1C9.58 26.68 9.91 26.35 10.33 26.35C10.75 26.35 11.08 26.68 11.08 27.1L11.06 27.12L9.6 27.12ZM11.06 36.53L11.08 36.55C11.08 36.97 10.75 37.3 10.33 37.3C9.91 37.3 9.58 36.97 9.58 36.55L9.6 36.53L11.06 36.53Z" fill="#000000" fill-opacity="0" fill-rule="nonzero"/>
		<path id="path" d="M10.33 27.1L10.33 36.55" stroke="#00D3FF" stroke-opacity="1.000000" stroke-width="1.500000" stroke-linejoin="round" stroke-linecap="round"/>
		<path id="path" d="M16.18 36.49L16.16 36.51C15.74 36.51 15.41 36.18 15.41 35.76C15.41 35.34 15.74 35.01 16.16 35.01L16.18 35.03L16.18 36.49ZM22.81 35.03L22.83 35.01C23.25 35.01 23.58 35.34 23.58 35.76C23.58 36.18 23.25 36.51 22.83 36.51L22.81 36.49L22.81 35.03Z" fill="#000000" fill-opacity="0" fill-rule="nonzero"/>
		<path id="path" d="M16.16 35.76L22.83 35.76" stroke="#00D3FF" stroke-opacity="1.000000" stroke-width="1.500000" stroke-linejoin="round" stroke-linecap="round"/>
		<path id="path" d="M27.85 36.49L27.83 36.51C27.41 36.51 27.08 36.18 27.08 35.76C27.08 35.34 27.41 35.01 27.83 35.01L27.85 35.03L27.85 36.49ZM29.48 35.03L29.5 35.01C29.92 35.01 30.25 35.34 30.25 35.76C30.25 36.18 29.92 36.51 29.5 36.51L29.48 36.49L29.48 35.03Z" fill="#000000" fill-opacity="0" fill-rule="nonzero"/>
		<path id="path" d="M27.83 35.76L29.5 35.76" stroke="#00D3FF" stroke-opacity="1.000000" stroke-width="1.500000" stroke-linejoin="round" stroke-linecap="round"/>
	</g>
</svg>
