<svg width="55.729614" height="64.000000" viewBox="0 0 55.7296 64" fill="none" xmlns="http://www.w3.org/2000/svg" xmlns:xlink="http://www.w3.org/1999/xlink">
	<desc>
			Created with Pixso.
	</desc>
	<defs>
		<clipPath id="clip233_1404">
			<rect id="choice 1" rx="0.000000" width="54.729622" height="63.000000" transform="translate(0.500000 0.500000)" fill="white" fill-opacity="0"/>
		</clipPath>
	</defs>
	<g clip-path="url(#clip233_1404)">
		<path id="Vector" d="M27.51 25.98L27.51 23.45C27.51 22.21 27.17 21.01 26.54 20C25.91 19 25.02 18.25 24 17.86L20.26 16.43C25.01 12.75 22.72 3.98 16.91 4C11.09 3.99 8.8 12.74 13.55 16.43L9.81 17.86C8.79 18.25 7.9 19 7.27 20C6.64 21 6.31 22.21 6.31 23.45L6.31 25.98C6.31 26.61 6.53 27.22 6.92 27.67C7.31 28.12 7.84 28.37 8.39 28.37L25.42 28.37C25.97 28.37 26.5 28.12 26.89 27.67C27.29 27.22 27.51 26.61 27.51 25.98ZM12.71 10.81C12.89 4.44 20.93 4.45 21.1 10.81C20.93 17.18 12.89 17.18 12.71 10.81ZM8.05 25.98L8.05 23.45C8.05 22.63 8.27 21.83 8.69 21.17C9.1 20.51 9.69 20.01 10.36 19.76L14.97 17.99C17.7 16.82 20.82 18.93 23.45 19.76C24.12 20.02 24.71 20.51 25.13 21.17C25.54 21.83 25.77 22.63 25.77 23.45L25.77 25.98C25.77 26.08 25.73 26.18 25.66 26.26C25.6 26.33 25.51 26.37 25.42 26.37L8.39 26.37C8.3 26.37 8.21 26.33 8.15 26.26C8.08 26.18 8.05 26.08 8.05 25.98Z" fill="#00D3FF" fill-opacity="1.000000" fill-rule="nonzero"/>
		<path id="Vector" d="M45.85 36.31L43.44 33.55C42.82 32.87 41.99 32.49 41.13 32.51C40.27 32.53 39.46 32.94 38.86 33.65C38.68 33.85 38.53 34.08 38.4 34.32C38.06 34.19 37.7 34.14 37.35 34.15C36.61 34.17 35.89 34.47 35.32 35C34.74 35.54 34.34 36.27 34.16 37.1C33.54 36.76 32.85 36.65 32.18 36.79C31.5 36.92 30.88 37.3 30.4 37.86C30.02 38.3 29.74 38.85 29.58 39.44L22.5 31.31C22.2 30.97 21.85 30.7 21.45 30.52C21.06 30.35 20.64 30.26 20.22 30.28C17.46 30.22 15.8 34.49 17.83 36.68L29.52 50.11C28.45 50.09 27.25 50.1 26.02 50.19C23.64 50.03 19.2 53.05 20.67 56.6C20.9 57.19 21.27 57.71 21.73 58.08C22.19 58.45 22.73 58.68 23.29 58.73L36.36 59.93C47.33 61.18 53.87 45.17 45.85 36.31ZM36.5 57.93L23.43 56.74C23.18 56.71 22.94 56.62 22.73 56.45C22.52 56.28 22.36 56.05 22.26 55.79C21.55 53.7 24.72 52.09 26.12 52.18C27.98 52.07 29.84 52.07 31.7 52.18C31.87 52.18 32.03 52.12 32.17 52.01C32.31 51.9 32.42 51.74 32.48 51.56C32.55 51.38 32.57 51.18 32.54 50.99C32.51 50.8 32.43 50.62 32.31 50.48L19.06 35.26C18.79 34.93 18.65 34.48 18.67 34.03C18.68 33.57 18.85 33.14 19.14 32.83C19.42 32.5 19.79 32.3 20.19 32.28C20.59 32.26 20.97 32.42 21.27 32.73L30.32 43.12C30.4 43.21 30.5 43.29 30.6 43.34C30.71 43.39 30.82 43.41 30.94 43.41C31.05 43.41 31.16 43.39 31.27 43.34C31.37 43.29 31.47 43.21 31.55 43.12C32.35 42.1 31.06 41.58 31.16 40.53C31.17 40.06 31.35 39.6 31.64 39.27C31.94 38.93 32.34 38.74 32.75 38.73C33.88 38.51 34.57 40.96 35.7 40.13C35.85 40.02 35.96 39.86 36.02 39.67C36.09 39.48 36.1 39.28 36.05 39.08C35.84 38.73 35.75 38.3 35.78 37.87C35.82 37.45 35.98 37.05 36.24 36.74C36.5 36.43 36.84 36.24 37.21 36.19C37.58 36.14 37.96 36.24 38.27 36.47C38.39 36.57 38.52 36.63 38.66 36.66C38.81 36.68 38.95 36.67 39.09 36.61C39.23 36.56 39.35 36.47 39.45 36.35C39.55 36.23 39.62 36.08 39.66 35.92C39.72 35.62 39.85 35.34 40.04 35.12C40.22 34.89 40.45 34.72 40.7 34.62C40.96 34.53 41.23 34.51 41.5 34.57C41.76 34.63 42.01 34.76 42.21 34.96L44.62 37.72C46.11 39.44 47.11 41.64 47.48 44.02C47.85 46.41 47.58 48.87 46.69 51.08C45.81 53.28 44.35 55.12 42.53 56.34C40.71 57.57 38.6 58.12 36.5 57.93Z" fill="#232C31" fill-opacity="1.000000" fill-rule="nonzero"/>
		<path id="Vector" d="M34.8 20.94C34.95 21.12 35.15 21.24 35.36 21.26C35.57 21.28 35.79 21.22 35.96 21.07L45.34 13.14C45.52 12.98 45.64 12.75 45.67 12.49C45.71 12.23 45.65 11.97 45.51 11.75C45.38 11.54 45.18 11.4 44.95 11.36C44.73 11.32 44.49 11.38 44.31 11.53L35.56 18.93L33.62 16.5C33.46 16.31 33.25 16.2 33.02 16.19C32.79 16.18 32.57 16.28 32.4 16.45C32.24 16.63 32.14 16.88 32.12 17.14C32.11 17.4 32.19 17.65 32.34 17.85L34.8 20.94Z" fill="#00D3FF" fill-opacity="1.000000" fill-rule="nonzero"/>
	</g>
</svg>
