<svg width="60.695358" height="60.540527" viewBox="0 0 60.6954 60.5405" fill="none" xmlns="http://www.w3.org/2000/svg" xmlns:xlink="http://www.w3.org/1999/xlink">
	<desc>
			Created with Pixso.
	</desc>
	<defs>
		<clipPath id="clip233_1552">
			<rect id="wall-clock 1" rx="29.770262" width="59.695358" height="59.540524" transform="translate(0.500000 0.500000)" fill="white" fill-opacity="0"/>
		</clipPath>
	</defs>
	<rect id="wall-clock 1" rx="29.770262" width="59.695358" height="59.540524" transform="translate(0.500000 0.500000)" fill="#FFFFFF" fill-opacity="0"/>
	<g clip-path="url(#clip233_1552)">
		<path id="Vector" d="M5.02 27.41C5.25 27.4 5.48 27.31 5.65 27.16C5.82 27 5.93 26.78 5.95 26.55C5.97 26.32 5.91 26.09 5.77 25.9C5.63 25.71 5.43 25.58 5.2 25.54C5.07 25.51 4.94 25.51 4.8 25.54C4.67 25.56 4.55 25.62 4.44 25.7C4.33 25.78 4.24 25.88 4.18 25.99C4.11 26.11 4.07 26.24 4.06 26.37C4.04 26.5 4.06 26.64 4.1 26.76C4.15 26.89 4.22 27.01 4.31 27.1C4.4 27.2 4.51 27.28 4.63 27.33C4.75 27.39 4.89 27.41 5.02 27.41Z" fill="#000000" fill-opacity="1.000000" fill-rule="nonzero"/>
		<path id="Vector" d="M16.45 9.75C16.66 9.75 16.86 9.67 17.02 9.55C17.19 9.42 17.3 9.24 17.35 9.03C17.4 8.83 17.39 8.62 17.3 8.43C17.22 8.24 17.07 8.08 16.89 7.98C16.7 7.88 16.49 7.85 16.28 7.88C16.08 7.92 15.89 8.02 15.75 8.17C15.61 8.33 15.52 8.52 15.5 8.73C15.49 8.94 15.54 9.15 15.65 9.32C15.74 9.45 15.86 9.56 16 9.64C16.14 9.71 16.29 9.75 16.45 9.75Z" fill="#000000" fill-opacity="1.000000" fill-rule="nonzero"/>
		<path id="Vector" d="M12.24 13.15C12.42 13.15 12.6 13.1 12.75 13C12.9 12.9 13.02 12.76 13.09 12.59C13.17 12.43 13.19 12.25 13.17 12.07C13.15 11.89 13.07 11.72 12.96 11.58C12.87 11.49 12.77 11.41 12.66 11.36C12.54 11.31 12.42 11.28 12.29 11.27C12.17 11.27 12.04 11.28 11.93 11.33C11.81 11.37 11.7 11.44 11.61 11.52C11.51 11.61 11.44 11.71 11.39 11.82C11.34 11.94 11.31 12.06 11.3 12.19C11.3 12.31 11.32 12.44 11.37 12.55C11.41 12.67 11.48 12.78 11.57 12.87C11.65 12.96 11.76 13.03 11.87 13.08C11.99 13.13 12.11 13.15 12.24 13.15Z" fill="#000000" fill-opacity="1.000000" fill-rule="nonzero"/>
		<path id="Vector" d="M21.29 7.32C21.49 7.32 21.68 7.25 21.85 7.13C22.01 7.01 22.13 6.84 22.19 6.65C22.25 6.46 22.25 6.25 22.18 6.06C22.11 5.87 21.99 5.71 21.82 5.59C21.66 5.48 21.46 5.42 21.26 5.42C21.05 5.43 20.86 5.5 20.7 5.62C20.54 5.75 20.43 5.92 20.37 6.11C20.32 6.31 20.32 6.51 20.39 6.7C20.46 6.88 20.58 7.04 20.74 7.15C20.9 7.26 21.09 7.32 21.29 7.32Z" fill="#000000" fill-opacity="1.000000" fill-rule="nonzero"/>
		<path id="Vector" d="M8.31 17.2C8.46 17.3 8.64 17.35 8.82 17.35C9.05 17.35 9.27 17.27 9.45 17.12C9.62 16.97 9.73 16.77 9.77 16.54C9.8 16.32 9.75 16.09 9.63 15.9C9.5 15.7 9.32 15.56 9.1 15.5C8.88 15.43 8.64 15.45 8.43 15.54C8.23 15.64 8.06 15.8 7.96 16.01C7.87 16.22 7.85 16.45 7.92 16.67C7.98 16.89 8.12 17.08 8.31 17.2Z" fill="#000000" fill-opacity="1.000000" fill-rule="nonzero"/>
		<path id="Vector" d="M6.05 22.11C6.15 22.16 6.27 22.18 6.39 22.18C6.6 22.17 6.8 22.1 6.96 21.97C7.12 21.83 7.24 21.65 7.29 21.45C7.34 21.25 7.32 21.03 7.24 20.84C7.15 20.65 7.01 20.49 6.82 20.39C6.7 20.33 6.57 20.3 6.44 20.29C6.31 20.28 6.17 20.3 6.05 20.35C5.92 20.4 5.81 20.47 5.72 20.56C5.62 20.66 5.55 20.77 5.5 20.89C5.41 21.13 5.42 21.39 5.52 21.61C5.62 21.84 5.81 22.02 6.05 22.11Z" fill="#000000" fill-opacity="1.000000" fill-rule="nonzero"/>
		<path id="Vector" d="M26.54 5.95C26.68 5.95 26.81 5.92 26.94 5.86C27.06 5.79 27.17 5.71 27.26 5.6C27.34 5.49 27.4 5.36 27.44 5.23C27.47 5.1 27.47 4.96 27.44 4.82C27.42 4.69 27.36 4.56 27.28 4.45C27.19 4.34 27.09 4.25 26.97 4.18C26.85 4.11 26.71 4.07 26.57 4.07C26.44 4.06 26.3 4.08 26.17 4.13C25.97 4.22 25.81 4.37 25.71 4.56C25.61 4.76 25.58 4.98 25.63 5.19C25.67 5.4 25.78 5.59 25.95 5.73C26.11 5.87 26.32 5.95 26.54 5.95Z" fill="#000000" fill-opacity="1.000000" fill-rule="nonzero"/>
		<path id="Vector" d="M30.34 3.78C30.09 3.78 29.85 3.88 29.67 4.06C29.49 4.23 29.39 4.47 29.39 4.72C29.39 4.98 29.49 5.22 29.67 5.39C29.85 5.57 30.09 5.67 30.34 5.67C35.22 5.67 39.99 7.11 44.04 9.82C48.1 12.52 51.26 16.36 53.12 20.85C54.99 25.35 55.48 30.29 54.53 35.06C53.58 39.83 51.23 44.22 47.78 47.66C44.33 51.1 39.94 53.44 35.15 54.39C30.37 55.34 25.41 54.85 20.91 52.99C16.4 51.13 12.55 47.97 9.84 43.93C7.13 39.88 5.69 35.13 5.69 30.27C5.69 30.01 5.59 29.77 5.41 29.6C5.23 29.42 4.99 29.32 4.74 29.32C4.49 29.32 4.24 29.42 4.07 29.6C3.89 29.77 3.79 30.01 3.79 30.27C3.79 35.5 5.35 40.62 8.26 44.98C11.18 49.34 15.33 52.73 20.18 54.74C25.03 56.74 30.37 57.26 35.52 56.24C40.67 55.22 45.41 52.7 49.12 48.99C52.83 45.29 55.36 40.57 56.39 35.43C57.41 30.29 56.89 24.97 54.88 20.13C52.87 15.29 49.46 11.15 45.1 8.24C40.73 5.33 35.59 3.78 30.34 3.78Z" fill="#000000" fill-opacity="1.000000" fill-rule="nonzero"/>
		<path id="Vector" d="M29.54 12.86L29.39 30.26C29.39 30.38 29.42 30.51 29.47 30.62C29.51 30.74 29.58 30.85 29.67 30.93L38.59 39.83C38.68 39.92 38.78 39.99 38.9 40.03C39.01 40.08 39.14 40.11 39.26 40.11C39.45 40.1 39.63 40.05 39.78 39.94C39.94 39.84 40.06 39.69 40.13 39.52C40.2 39.35 40.22 39.16 40.18 38.98C40.15 38.79 40.06 38.62 39.93 38.49L31.29 29.88L31.44 12.87C31.43 12.63 31.33 12.39 31.16 12.22C30.98 12.04 30.75 11.94 30.5 11.94C30.25 11.94 30.01 12.03 29.83 12.2C29.65 12.37 29.55 12.61 29.54 12.86Z" fill="#00BBFF" fill-opacity="1.000000" fill-rule="nonzero"/>
	</g>
</svg>
