<svg width="55.140656" height="55.000000" viewBox="0 0 55.1407 55" fill="none" xmlns="http://www.w3.org/2000/svg" xmlns:xlink="http://www.w3.org/1999/xlink">
	<desc>
			Created with Pixso.
	</desc>
	<defs>
		<clipPath id="clip2_745">
			<rect id="Много пользователей" width="35.000000" height="33.064251" transform="translate(9.900269 11.000000)" fill="white" fill-opacity="0"/>
		</clipPath>
	</defs>
	<rect id="Компоненты 2" width="55.140625" height="55.000000" fill="#FFFFFF" fill-opacity="0"/>
	<rect id="Прямоугольник 1" x="1.000000" y="1.000000" rx="26.500000" width="53.140663" height="53.000000" stroke="#000000" stroke-opacity="1.000000" stroke-width="2.000000"/>
	<g clip-path="url(#clip2_745)">
		<ellipse id="circle" cx="20.108612" cy="30.976318" rx="3.645833" ry="3.444193" fill="#000000" fill-opacity="0"/>
		<ellipse id="circle" cx="20.108612" cy="30.976318" rx="3.645833" ry="3.444193" stroke="#00D3FF" stroke-opacity="1.000000" stroke-width="1.500000" stroke-linejoin="round"/>
		<ellipse id="circle" cx="34.691925" cy="30.976318" rx="3.645833" ry="3.444193" fill="#000000" fill-opacity="0"/>
		<ellipse id="circle" cx="34.691925" cy="30.976318" rx="3.645833" ry="3.444193" stroke="#00D3FF" stroke-opacity="1.000000" stroke-width="1.500000" stroke-linejoin="round"/>
		<ellipse id="circle" cx="27.400299" cy="17.199585" rx="3.645833" ry="3.444193" fill="#000000" fill-opacity="0"/>
		<ellipse id="circle" cx="27.400299" cy="17.199585" rx="3.645833" ry="3.444193" stroke="#00D3FF" stroke-opacity="1.000000" stroke-width="1.500000" stroke-linejoin="round"/>
		<path id="path" d="M28.13 41.28L28.15 41.3C28.15 41.72 27.82 42.05 27.4 42.05C26.98 42.05 26.65 41.72 26.65 41.3L26.67 41.28L28.13 41.28ZM13.54 41.28L13.56 41.3C13.56 41.72 13.23 42.05 12.81 42.05C12.39 42.05 12.06 41.72 12.06 41.3L12.08 41.28L13.54 41.28Z" fill="#000000" fill-opacity="0" fill-rule="nonzero"/>
		<path id="path" d="M27.4 41.3C27.4 37.5 24.13 34.42 20.1 34.42C16.08 34.42 12.81 37.5 12.81 41.3" stroke="#00D3FF" stroke-opacity="1.000000" stroke-width="1.500000" stroke-linejoin="round" stroke-linecap="round"/>
		<path id="path" d="M42.71 41.28L42.73 41.3C42.73 41.72 42.4 42.05 41.98 42.05C41.56 42.05 41.23 41.72 41.23 41.3L41.25 41.28L42.71 41.28ZM28.13 41.28L28.15 41.3C28.15 41.72 27.82 42.05 27.4 42.05C26.98 42.05 26.65 41.72 26.65 41.3L26.67 41.28L28.13 41.28Z" fill="#000000" fill-opacity="0" fill-rule="nonzero"/>
		<path id="path" d="M41.98 41.3C41.98 37.5 38.71 34.42 34.69 34.42C30.66 34.42 27.4 37.5 27.4 41.3" stroke="#00D3FF" stroke-opacity="1.000000" stroke-width="1.500000" stroke-linejoin="round" stroke-linecap="round"/>
		<path id="path" d="M35.42 27.51L35.44 27.53C35.44 27.95 35.11 28.28 34.69 28.28C34.27 28.28 33.94 27.95 33.94 27.53L33.96 27.51L35.42 27.51ZM20.83 27.51L20.85 27.53C20.85 27.95 20.52 28.28 20.1 28.28C19.68 28.28 19.35 27.95 19.35 27.53L19.37 27.51L20.83 27.51Z" fill="#000000" fill-opacity="0" fill-rule="nonzero"/>
		<path id="path" d="M34.69 27.53C34.69 23.72 31.42 20.64 27.4 20.64C23.37 20.64 20.1 23.72 20.1 27.53" stroke="#00D3FF" stroke-opacity="1.000000" stroke-width="1.500000" stroke-linejoin="round" stroke-linecap="round"/>
	</g>
</svg>
