<svg width="16.018555" height="16.000000" viewBox="0 0 16.0186 16" fill="none" xmlns="http://www.w3.org/2000/svg" xmlns:xlink="http://www.w3.org/1999/xlink">
	<desc>
			Created with Pixso.
	</desc>
	<defs>
		<clipPath id="clip5_671">
			<rect id="whatsapp (5) 1" rx="0.000000" width="15.018518" height="14.999999" transform="translate(0.500000 0.500000)" fill="white" fill-opacity="0"/>
		</clipPath>
	</defs>
	<rect id="whatsapp (5) 1" rx="0.000000" width="15.018518" height="14.999999" transform="translate(0.500000 0.500000)" fill="#FFFFFF" fill-opacity="0"/>
	<g clip-path="url(#clip5_671)">
		<path id="Vector" d="M8.01 0L8 0C3.59 0 0 3.58 0 8C0 9.75 0.56 11.37 1.52 12.68L0.52 15.66L3.6 14.67C4.87 15.51 6.38 16 8.01 16C12.42 16 16.01 12.41 16.01 8C16.01 3.58 12.42 0 8.01 0Z" fill="#4CAF50" fill-opacity="1.000000" fill-rule="nonzero"/>
		<path id="Vector" d="M12.67 11.29C12.47 11.84 11.71 12.29 11.09 12.42C10.68 12.51 10.13 12.58 8.29 11.82C5.94 10.85 4.42 8.46 4.3 8.3C4.19 8.15 3.35 7.04 3.35 5.89C3.35 4.74 3.93 4.18 4.17 3.94C4.36 3.74 4.68 3.65 4.99 3.65C5.09 3.65 5.18 3.66 5.26 3.66C5.49 3.67 5.61 3.69 5.77 4.06C5.96 4.52 6.43 5.67 6.49 5.79C6.54 5.91 6.6 6.07 6.52 6.22C6.44 6.38 6.38 6.45 6.26 6.59C6.14 6.72 6.03 6.83 5.91 6.97C5.8 7.1 5.68 7.24 5.82 7.47C5.95 7.7 6.42 8.47 7.12 9.09C8.01 9.88 8.74 10.14 9 10.24C9.19 10.32 9.42 10.3 9.56 10.15C9.74 9.96 9.96 9.64 10.19 9.33C10.35 9.1 10.55 9.07 10.76 9.15C10.98 9.23 12.12 9.79 12.36 9.91C12.59 10.03 12.75 10.08 12.8 10.18C12.86 10.28 12.86 10.75 12.67 11.29Z" fill="#FAFAFA" fill-opacity="1.000000" fill-rule="nonzero"/>
	</g>
</svg>
