<svg width="16.000000" height="16.000000" viewBox="0 0 16 16" fill="none" xmlns="http://www.w3.org/2000/svg" xmlns:xlink="http://www.w3.org/1999/xlink">
	<desc>
			Created with Pixso.
	</desc>
	<defs>
		<clipPath id="clip233_1502">
			<rect id="right-arrow 1" rx="0.000000" width="15.000000" height="15.000000" transform="translate(0.500000 0.500000)" fill="white" fill-opacity="0"/>
		</clipPath>
	</defs>
	<rect id="right-arrow 1" rx="0.000000" width="15.000000" height="15.000000" transform="translate(0.500000 0.500000)" fill="#FFFFFF" fill-opacity="0"/>
	<g clip-path="url(#clip233_1502)">
		<path id="Vector" d="M12.44 7.37L5.32 0.25C5.15 0.09 4.93 0 4.7 0C4.47 0 4.25 0.09 4.08 0.25L3.56 0.77C3.22 1.12 3.22 1.67 3.56 2.01L9.54 7.99L3.55 13.98C3.39 14.14 3.3 14.36 3.3 14.6C3.3 14.83 3.39 15.05 3.55 15.22L4.07 15.74C4.24 15.9 4.46 16 4.69 16C4.93 16 5.15 15.9 5.31 15.74L12.44 8.61C12.6 8.45 12.7 8.23 12.7 7.99C12.7 7.76 12.6 7.54 12.44 7.37Z" fill="#FFFFFF" fill-opacity="1.000000" fill-rule="nonzero"/>
	</g>
</svg>
