<svg width="16.000000" height="16.000000" viewBox="0 0 16 16" fill="none" xmlns="http://www.w3.org/2000/svg" xmlns:xlink="http://www.w3.org/1999/xlink">
	<desc>
			Created with Pixso.
	</desc>
	<defs>
		<clipPath id="clip233_1508">
			<rect id="right-arrow 1" rx="0.000000" width="15.000000" height="15.000000" transform="matrix(-1 0 0 1 16.5 0.5)" fill="white" fill-opacity="0"/>
		</clipPath>
	</defs>
	<rect id="right-arrow 1" rx="0.000000" width="15.000000" height="15.000000" transform="matrix(-1 0 0 1 16.5 0.5)" fill="#FFFFFF" fill-opacity="0"/>
	<g clip-path="url(#clip233_1508)">
		<path id="Vector" d="M3.55 7.37L10.67 0.25C10.84 0.09 11.06 0 11.29 0C11.52 0 11.74 0.09 11.91 0.25L12.43 0.77C12.77 1.12 12.77 1.67 12.43 2.01L6.45 7.99L12.44 13.98C12.6 14.14 12.7 14.36 12.7 14.6C12.7 14.83 12.6 15.05 12.44 15.22L11.92 15.74C11.75 15.9 11.53 16 11.3 16C11.06 16 10.84 15.9 10.68 15.74L3.55 8.61C3.39 8.45 3.29 8.23 3.3 7.99C3.29 7.76 3.39 7.54 3.55 7.37Z" fill="#232C31" fill-opacity="1.000000" fill-rule="nonzero"/>
	</g>
</svg>
