<svg width="17.500000" height="21.500000" viewBox="0 0 17.5 21.5" fill="none" xmlns="http://www.w3.org/2000/svg" xmlns:xlink="http://www.w3.org/1999/xlink">
	<desc>
			Created with Pixso.
	</desc>
	<defs/>
	<rect id="фрейм 8" width="17.500000" height="21.500000" fill="#FFFFFF" fill-opacity="0"/>
	<path id="rect (Граница)" d="M15.33 0.06C15.14 0.02 14.95 0 14.75 0L2.75 0C2.54 0 2.35 0.02 2.16 0.06C1.99 0.09 1.83 0.14 1.67 0.21C1.52 0.28 1.37 0.36 1.23 0.45C1.08 0.55 0.93 0.67 0.8 0.8C0.67 0.93 0.55 1.08 0.45 1.23C0.36 1.37 0.28 1.52 0.21 1.67C0.14 1.83 0.09 1.99 0.06 2.16C0.02 2.35 0 2.54 0 2.75L0 18.75C0 19.12 0.07 19.47 0.21 19.82C0.35 20.14 0.55 20.44 0.8 20.69C1.05 20.94 1.35 21.14 1.67 21.28C2.02 21.42 2.37 21.5 2.75 21.5L14.75 21.5C14.95 21.5 15.14 21.47 15.33 21.43C15.5 21.4 15.66 21.35 15.82 21.28C16.14 21.14 16.44 20.94 16.69 20.69C16.94 20.44 17.14 20.14 17.28 19.82C17.42 19.47 17.5 19.12 17.5 18.75L17.5 2.75C17.5 2.54 17.47 2.35 17.43 2.16C17.4 1.99 17.35 1.83 17.28 1.67C17.14 1.35 16.94 1.05 16.69 0.8C16.44 0.55 16.14 0.35 15.82 0.21C15.66 0.14 15.5 0.09 15.33 0.06ZM2.75 1.5L14.75 1.5C14.91 1.5 15.08 1.53 15.23 1.59C15.38 1.66 15.51 1.75 15.63 1.86C15.74 1.98 15.83 2.11 15.9 2.26C15.96 2.41 16 2.58 16 2.75L16 18.75C16 18.91 15.96 19.08 15.9 19.23C15.83 19.38 15.74 19.51 15.63 19.63C15.51 19.74 15.38 19.83 15.23 19.9C15.08 19.96 14.91 20 14.75 20L2.75 20C2.65 20 2.55 19.98 2.45 19.96C2.39 19.95 2.32 19.92 2.26 19.9C2.11 19.83 1.98 19.74 1.86 19.63C1.8 19.57 1.74 19.5 1.69 19.42C1.66 19.36 1.62 19.3 1.59 19.23C1.53 19.08 1.5 18.91 1.5 18.75L1.5 2.75C1.5 2.65 1.51 2.55 1.53 2.45C1.54 2.39 1.57 2.32 1.59 2.26C1.62 2.19 1.66 2.13 1.69 2.07C1.74 1.99 1.8 1.92 1.86 1.86C1.92 1.8 1.99 1.74 2.07 1.69C2.13 1.66 2.19 1.62 2.26 1.59C2.32 1.57 2.39 1.54 2.45 1.53C2.55 1.51 2.65 1.5 2.75 1.5Z" fill="#FFFFFF" fill-opacity="1.000000" fill-rule="evenodd"/>
	<path id="rect (Граница)" d="M3 4.25L3 8.75C3 9 3.06 9.18 3.18 9.31C3.31 9.43 3.5 9.5 3.75 9.5L13.75 9.5C14 9.5 14.18 9.43 14.31 9.31C14.43 9.18 14.5 9 14.5 8.75L14.5 4.25C14.5 4 14.43 3.81 14.31 3.68C14.18 3.56 14 3.5 13.75 3.5L3.75 3.5C3.5 3.5 3.31 3.56 3.18 3.68C3.06 3.81 3 4 3 4.25ZM4.5 8L4.5 5L13 5L13 8L4.5 8Z" fill="#FFFFFF" fill-opacity="1.000000" fill-rule="evenodd"/>
	<path id="circle" d="M4.25 11.75C4.25 11.19 4.69 10.75 5.25 10.75C5.8 10.75 6.25 11.19 6.25 11.75C6.25 12.3 5.8 12.75 5.25 12.75C4.69 12.75 4.25 12.3 4.25 11.75Z" fill="#FFFFFF" fill-opacity="1.000000" fill-rule="evenodd"/>
	<path id="circle" d="M4.25 14.75C4.25 14.19 4.69 13.75 5.25 13.75C5.8 13.75 6.25 14.19 6.25 14.75C6.25 15.3 5.8 15.75 5.25 15.75C4.69 15.75 4.25 15.3 4.25 14.75Z" fill="#FFFFFF" fill-opacity="1.000000" fill-rule="evenodd"/>
	<path id="circle" d="M4.25 17.75C4.25 17.19 4.69 16.75 5.25 16.75C5.8 16.75 6.25 17.19 6.25 17.75C6.25 18.3 5.8 18.75 5.25 18.75C4.69 18.75 4.25 18.3 4.25 17.75Z" fill="#FFFFFF" fill-opacity="1.000000" fill-rule="evenodd"/>
	<path id="circle" d="M7.75 11.75C7.75 11.19 8.19 10.75 8.75 10.75C9.3 10.75 9.75 11.19 9.75 11.75C9.75 12.3 9.3 12.75 8.75 12.75C8.19 12.75 7.75 12.3 7.75 11.75Z" fill="#FFFFFF" fill-opacity="1.000000" fill-rule="evenodd"/>
	<path id="circle" d="M7.75 14.75C7.75 14.19 8.19 13.75 8.75 13.75C9.3 13.75 9.75 14.19 9.75 14.75C9.75 15.3 9.3 15.75 8.75 15.75C8.19 15.75 7.75 15.3 7.75 14.75Z" fill="#FFFFFF" fill-opacity="1.000000" fill-rule="evenodd"/>
	<path id="circle" d="M7.75 17.75C7.75 17.19 8.19 16.75 8.75 16.75C9.3 16.75 9.75 17.19 9.75 17.75C9.75 18.3 9.3 18.75 8.75 18.75C8.19 18.75 7.75 18.3 7.75 17.75Z" fill="#FFFFFF" fill-opacity="1.000000" fill-rule="evenodd"/>
	<path id="circle" d="M11.25 11.75C11.25 11.19 11.69 10.75 12.25 10.75C12.8 10.75 13.25 11.19 13.25 11.75C13.25 12.3 12.8 12.75 12.25 12.75C11.69 12.75 11.25 12.3 11.25 11.75Z" fill="#FFFFFF" fill-opacity="1.000000" fill-rule="evenodd"/>
	<path id="circle" d="M11.25 14.75C11.25 14.19 11.69 13.75 12.25 13.75C12.8 13.75 13.25 14.19 13.25 14.75C13.25 15.3 12.8 15.75 12.25 15.75C11.69 15.75 11.25 15.3 11.25 14.75Z" fill="#FFFFFF" fill-opacity="1.000000" fill-rule="evenodd"/>
	<path id="circle" d="M11.25 17.75C11.25 17.19 11.69 16.75 12.25 16.75C12.8 16.75 13.25 17.19 13.25 17.75C13.25 18.3 12.8 18.75 12.25 18.75C11.69 18.75 11.25 18.3 11.25 17.75Z" fill="#FFFFFF" fill-opacity="1.000000" fill-rule="evenodd"/>
</svg>
