<svg width="43.600342" height="40.844482" viewBox="0 0 43.6003 40.8445" fill="none" xmlns="http://www.w3.org/2000/svg" xmlns:xlink="http://www.w3.org/1999/xlink">
	<desc>
			Created with Pixso.
	</desc>
	<defs/>
	<rect id="Компоненты 8" width="43.600403" height="40.844376" fill="#FFFFFF" fill-opacity="0"/>
	<path id="Vector" d="M41.48 0L2.11 0C1.55 0 1.01 0.22 0.61 0.62C0.22 1.02 0 1.56 0 2.13L0 29.41C0 29.97 0.22 30.51 0.61 30.91C1.01 31.31 1.55 31.54 2.11 31.54L16.73 31.54L14.24 35.66L11.32 35.66C11.14 35.66 10.96 35.74 10.84 35.86C10.71 35.99 10.64 36.17 10.64 36.35L10.64 40.15C10.64 40.33 10.71 40.51 10.84 40.64C10.96 40.77 11.14 40.84 11.32 40.84L32.27 40.84C32.45 40.84 32.63 40.77 32.75 40.64C32.88 40.51 32.95 40.33 32.95 40.15L32.95 36.34C32.95 36.15 32.88 35.98 32.75 35.85C32.63 35.72 32.45 35.65 32.27 35.65L29.35 35.65L26.86 31.52L41.48 31.52C42.04 31.52 42.58 31.3 42.97 30.9C43.37 30.51 43.59 29.97 43.6 29.41L43.6 2.13C43.6 1.56 43.37 1.02 42.98 0.62C42.58 0.22 42.04 0 41.48 0ZM31.61 37L31.61 39.47L11.98 39.47L11.98 37L31.61 37ZM27.8 35.67L15.79 35.67L18.27 31.54L25.32 31.54L27.8 35.67ZM42.27 29.41C42.27 29.62 42.19 29.82 42.04 29.97C41.89 30.12 41.69 30.2 41.48 30.2L2.11 30.2C1.9 30.2 1.7 30.12 1.55 29.97C1.4 29.82 1.32 29.62 1.32 29.41L1.32 25.28L42.27 25.28L42.27 29.41ZM42.27 23.91L1.32 23.91L1.32 2.13C1.32 1.91 1.4 1.71 1.55 1.56C1.7 1.41 1.9 1.33 2.11 1.33L41.48 1.33C41.69 1.33 41.89 1.41 42.04 1.56C42.19 1.71 42.27 1.91 42.27 2.13L42.27 23.91Z" fill="#FFFFFF" fill-opacity="1.000000" fill-rule="nonzero"/>
	<path id="Vector" d="M30.05 18.7L29.41 18.7L29.41 11.46C29.37 11.31 29.29 11.18 29.17 11.09C29.05 10.99 28.9 10.94 28.75 10.94C28.6 10.94 28.45 10.99 28.33 11.09C28.21 11.18 28.13 11.31 28.09 11.46L28.09 18.7L25.5 18.7L25.5 14.1C25.46 13.95 25.38 13.82 25.26 13.73C25.14 13.63 24.99 13.58 24.84 13.58C24.69 13.58 24.54 13.63 24.42 13.73C24.3 13.82 24.22 13.95 24.18 14.1L24.18 18.7L21.58 18.7L21.58 12.35C21.55 12.2 21.46 12.07 21.34 11.97C21.22 11.88 21.08 11.83 20.92 11.83C20.77 11.83 20.62 11.88 20.5 11.97C20.38 12.07 20.3 12.2 20.26 12.35L20.26 18.7L17.71 18.7L17.71 15.42C17.67 15.27 17.59 15.14 17.47 15.04C17.35 14.95 17.2 14.9 17.05 14.9C16.9 14.9 16.75 14.95 16.63 15.04C16.51 15.14 16.42 15.27 16.39 15.42L16.39 18.7L14.2 18.7L14.2 8.39C14.16 8.24 14.08 8.11 13.96 8.01C13.84 7.92 13.69 7.87 13.54 7.87C13.39 7.87 13.24 7.92 13.12 8.01C13 8.11 12.91 8.24 12.88 8.39L12.88 19.39C12.88 19.57 12.95 19.75 13.08 19.88C13.2 20 13.38 20.08 13.56 20.08L30.05 20.08C30.2 20.04 30.33 19.95 30.42 19.83C30.52 19.71 30.57 19.56 30.57 19.41C30.57 19.26 30.52 19.11 30.42 18.99C30.33 18.87 30.2 18.78 30.05 18.74L30.05 18.7Z" fill="#FFFFFF" fill-opacity="1.000000" fill-rule="nonzero"/>
	<path id="Vector" d="M16.15 11.89C16.23 11.89 16.32 11.87 16.4 11.84C16.48 11.81 16.55 11.76 16.61 11.7L20.12 8.16L23.16 10.45C23.29 10.54 23.44 10.58 23.6 10.57C23.76 10.56 23.91 10.49 24.02 10.38L26.82 7.56C26.82 7.73 26.88 7.9 27 8.03C27.12 8.16 27.28 8.23 27.46 8.25C27.63 8.25 27.8 8.18 27.92 8.06C28.05 7.94 28.13 7.78 28.14 7.61L28.2 5.88C28.2 5.83 28.2 5.78 28.2 5.73C28.2 5.69 28.2 5.66 28.2 5.63C28.2 5.63 28.16 5.57 28.14 5.54C28.12 5.49 28.09 5.45 28.06 5.41C27.96 5.31 27.83 5.25 27.7 5.23C27.66 5.22 27.62 5.22 27.57 5.23L25.79 5.28C25.64 5.31 25.51 5.4 25.42 5.52C25.32 5.64 25.27 5.79 25.27 5.94C25.27 6.1 25.32 6.24 25.42 6.36C25.51 6.49 25.64 6.57 25.79 6.61L25.88 6.61L23.49 9.02L20.43 6.75C20.3 6.65 20.15 6.61 19.99 6.62C19.83 6.63 19.68 6.7 19.57 6.81L15.66 10.78C15.58 10.87 15.53 10.99 15.51 11.12C15.49 11.24 15.5 11.37 15.55 11.49C15.6 11.61 15.68 11.71 15.78 11.78C15.89 11.86 16.01 11.9 16.13 11.91L16.15 11.89Z" fill="#FFFFFF" fill-opacity="1.000000" fill-rule="nonzero"/>
</svg>
