<svg width="64.000000" height="64.000000" viewBox="0 0 64 64" fill="none" xmlns="http://www.w3.org/2000/svg" xmlns:xlink="http://www.w3.org/1999/xlink">
	<desc>
			Created with Pixso.
	</desc>
	<defs>
		<clipPath id="clip233_1394">
			<rect id="wallet (2) 1" rx="0.000000" width="63.000000" height="63.000000" transform="translate(0.500000 0.500000)" fill="white" fill-opacity="0"/>
		</clipPath>
	</defs>
	<rect id="wallet (2) 1" rx="0.000000" width="63.000000" height="63.000000" transform="translate(0.500000 0.500000)" fill="#FFFFFF" fill-opacity="0"/>
	<g clip-path="url(#clip233_1394)">
		<path id="Vector" d="M57.2 40.68C57.06 40.68 56.93 40.7 56.81 40.75C56.69 40.8 56.58 40.88 56.49 40.97C56.4 41.06 56.32 41.17 56.27 41.29C56.22 41.41 56.2 41.54 56.2 41.68L56.2 42.87C56.19 44.91 55.38 46.86 53.94 48.31C52.49 49.75 50.54 50.56 48.5 50.56L11.51 50.56C10.05 50.56 8.65 49.98 7.61 48.95C6.58 47.91 6 46.51 6 45.04L6 18.95C6 17.48 6.58 16.08 7.61 15.04C8.65 14.01 10.05 13.43 11.51 13.43L48.49 13.43C49.61 13.44 50.7 13.69 51.71 14.16C52.72 14.63 53.61 15.3 54.34 16.14C55.07 16.98 55.61 17.97 55.93 19.03C56.25 20.09 56.34 21.21 56.2 22.31C56.2 22.58 56.31 22.83 56.49 23.01C56.68 23.19 56.93 23.3 57.2 23.3C57.46 23.3 57.71 23.19 57.9 23.01C58.08 22.83 58.19 22.58 58.2 22.31C58.34 20.95 58.2 19.57 57.78 18.26C57.36 16.95 56.67 15.75 55.75 14.72C54.84 13.7 53.72 12.88 52.47 12.31C51.22 11.74 49.87 11.44 48.5 11.43L11.51 11.43C9.52 11.43 7.61 12.22 6.2 13.63C4.79 15.04 4 16.95 4 18.95L4 45.04C4 47.04 4.79 48.95 6.2 50.36C7.61 51.77 9.52 52.56 11.51 52.56L48.5 52.56C49.87 52.55 51.22 52.25 52.47 51.68C53.72 51.11 54.84 50.29 55.75 49.27C56.67 48.24 57.36 47.04 57.78 45.73C58.2 44.42 58.34 43.04 58.2 41.68C58.2 41.54 58.17 41.41 58.12 41.29C58.07 41.17 58 41.06 57.9 40.97C57.81 40.87 57.7 40.8 57.58 40.75C57.46 40.7 57.33 40.68 57.2 40.68Z" fill="#232C31" fill-opacity="1.000000" fill-rule="nonzero"/>
		<path id="Vector" d="M58 25.31L47.65 25.31C38.81 25.62 38.8 38.36 47.65 38.67L58 38.67C58.26 38.67 58.52 38.62 58.76 38.52C59 38.42 59.22 38.27 59.41 38.09C59.6 37.9 59.74 37.68 59.84 37.44C59.94 37.2 60 36.94 60 36.67L60 27.31C60 27.05 59.94 26.79 59.84 26.55C59.74 26.31 59.6 26.09 59.41 25.9C59.22 25.71 59 25.57 58.76 25.47C58.52 25.37 58.26 25.31 58 25.31ZM58 36.67L47.65 36.67C46.4 36.67 45.21 36.18 44.34 35.3C43.46 34.43 42.97 33.24 42.97 32C42.97 30.75 43.46 29.56 44.34 28.69C45.21 27.81 46.4 27.31 47.65 27.31L58 27.31L58 36.67Z" fill="#00D3FF" fill-opacity="1.000000" fill-rule="nonzero"/>
		<path id="Vector" d="M52.57 32C52.56 31.45 52.34 30.92 51.95 30.53C51.56 30.15 51.03 29.93 50.48 29.93C49.93 29.93 49.4 30.15 49.01 30.53C48.62 30.92 48.4 31.45 48.4 32C48.4 32.54 48.62 33.07 49.01 33.46C49.4 33.84 49.93 34.06 50.48 34.06C51.03 34.06 51.56 33.84 51.95 33.46C52.34 33.07 52.56 32.54 52.57 32Z" fill="#00D3FF" fill-opacity="1.000000" fill-rule="nonzero"/>
		<path id="Vector" d="M13.61 18.94C13.61 18.68 13.5 18.42 13.31 18.24C13.13 18.05 12.87 17.94 12.61 17.94C12.34 17.94 12.09 18.05 11.9 18.24C11.71 18.42 11.61 18.68 11.61 18.94L11.61 27.64C11.61 27.91 11.71 28.16 11.9 28.35C12.09 28.54 12.34 28.64 12.61 28.64C12.87 28.64 13.13 28.54 13.31 28.35C13.5 28.16 13.61 27.91 13.61 27.64L13.61 18.94Z" fill="#00D3FF" fill-opacity="1.000000" fill-rule="nonzero"/>
		<path id="Vector" d="M12.61 35.34C12.48 35.34 12.35 35.37 12.22 35.42C12.1 35.47 11.99 35.54 11.9 35.64C11.81 35.73 11.73 35.84 11.68 35.96C11.63 36.08 11.61 36.21 11.61 36.34L11.61 45.04C11.61 45.31 11.71 45.56 11.9 45.75C12.09 45.94 12.34 46.04 12.61 46.04C12.87 46.04 13.13 45.94 13.31 45.75C13.5 45.56 13.61 45.31 13.61 45.04L13.61 36.34C13.61 36.21 13.58 36.08 13.53 35.96C13.48 35.84 13.41 35.73 13.31 35.64C13.22 35.54 13.11 35.47 12.99 35.42C12.87 35.37 12.74 35.34 12.61 35.34Z" fill="#00D3FF" fill-opacity="1.000000" fill-rule="nonzero"/>
	</g>
</svg>
