<svg width="64.000000" height="64.000000" viewBox="0 0 64 64" fill="none" xmlns="http://www.w3.org/2000/svg" xmlns:xlink="http://www.w3.org/1999/xlink">
	<desc>
			Created with Pixso.
	</desc>
	<defs>
		<clipPath id="clip233_1373">
			<rect id="star (6) 1" rx="0.000000" width="63.000000" height="63.000000" transform="translate(0.500000 0.500000)" fill="white" fill-opacity="0"/>
		</clipPath>
	</defs>
	<rect id="star (6) 1" rx="0.000000" width="63.000000" height="63.000000" transform="translate(0.500000 0.500000)" fill="#FFFFFF" fill-opacity="0"/>
	<g clip-path="url(#clip233_1373)">
		<path id="Vector" d="M58.24 51.08C63.62 41 55.96 28.25 44.48 28.42C40.38 28.44 36.45 30.08 33.54 32.98C30.64 35.88 29 39.81 28.98 43.92C28.81 55.4 41.59 63.06 51.64 57.67L58.02 58.58C58.17 58.6 58.33 58.59 58.47 58.54C58.62 58.49 58.75 58.41 58.86 58.3C58.97 58.19 59.06 58.06 59.1 57.91C59.15 57.76 59.17 57.6 59.15 57.45L58.24 51.08ZM56.98 56.41L51.6 55.65C51.39 55.62 51.17 55.65 50.97 55.76C37.16 62.93 24.14 45.63 34.94 34.38C46.2 23.57 63.49 36.6 56.33 50.41C56.22 50.6 56.19 50.82 56.22 51.04L56.98 56.41Z" fill="#00D3FF" fill-opacity="1.000000" fill-rule="nonzero"/>
		<path id="Vector" d="M45.98 43.92C45.98 44.75 45.31 45.42 44.48 45.42C43.65 45.42 42.98 44.75 42.98 43.92C42.98 43.09 43.65 42.42 44.48 42.42C45.31 42.42 45.98 43.09 45.98 43.92Z" fill="#00D3FF" fill-opacity="1.000000" fill-rule="evenodd"/>
		<path id="Vector" d="M52.98 43.92C52.98 44.75 52.31 45.42 51.48 45.42C50.66 45.42 49.98 44.75 49.98 43.92C49.98 43.09 50.66 42.42 51.48 42.42C52.31 42.42 52.98 43.09 52.98 43.92Z" fill="#00D3FF" fill-opacity="1.000000" fill-rule="evenodd"/>
		<path id="Vector" d="M38.98 43.92C38.98 44.75 38.31 45.42 37.48 45.42C36.65 45.42 35.98 44.75 35.98 43.92C35.98 43.09 36.65 42.42 37.48 42.42C38.31 42.42 38.98 43.09 38.98 43.92Z" fill="#00D3FF" fill-opacity="1.000000" fill-rule="evenodd"/>
		<path id="Vector" d="M27.22 50.92L18.87 55.89C18.43 56.16 17.92 56.28 17.41 56.26C16.9 56.24 16.4 56.06 15.99 55.76C15.58 55.46 15.26 55.04 15.08 54.56C14.9 54.08 14.87 53.56 14.99 53.06L17.76 40.88C17.94 40.06 17.9 39.22 17.64 38.43C17.38 37.63 16.91 36.93 16.29 36.38L6.88 28.13C6.49 27.8 6.2 27.36 6.07 26.86C5.93 26.37 5.94 25.84 6.1 25.35C6.25 24.87 6.55 24.43 6.96 24.12C7.36 23.8 7.85 23.6 8.36 23.56L20.82 22.42C21.65 22.35 22.44 22.05 23.12 21.56C23.79 21.07 24.32 20.41 24.65 19.65L29.58 8.15C29.78 7.68 30.12 7.27 30.54 6.99C30.97 6.71 31.47 6.56 31.98 6.56C32.49 6.56 33 6.71 33.42 6.99C33.85 7.27 34.18 7.68 34.38 8.15L39.32 19.65C39.65 20.42 40.18 21.08 40.85 21.56C41.52 22.05 42.31 22.35 43.14 22.42L55.6 23.56C56.12 23.6 56.6 23.8 57.01 24.12C57.41 24.43 57.71 24.87 57.87 25.35C58.03 25.84 58.04 26.37 57.9 26.86C57.76 27.36 57.48 27.8 57.09 28.13L55.91 29.16C55.71 29.34 55.6 29.58 55.58 29.85C55.56 30.11 55.65 30.37 55.83 30.56C56 30.76 56.24 30.88 56.5 30.9C56.76 30.92 57.02 30.84 57.22 30.67L58.4 29.64C59.07 29.04 59.56 28.26 59.79 27.39C60.03 26.52 60 25.61 59.73 24.75C59.45 23.9 58.93 23.14 58.23 22.58C57.53 22.01 56.68 21.66 55.79 21.57L43.32 20.43C42.85 20.39 42.4 20.22 42.02 19.94C41.64 19.67 41.34 19.29 41.15 18.86L36.22 7.36C35.87 6.53 35.28 5.82 34.52 5.32C33.77 4.82 32.89 4.56 31.98 4.56C31.08 4.56 30.19 4.82 29.44 5.32C28.69 5.82 28.1 6.53 27.74 7.36L22.81 18.86C22.63 19.29 22.32 19.67 21.94 19.94C21.56 20.22 21.11 20.39 20.64 20.43L8.18 21.57C7.28 21.66 6.43 22.01 5.73 22.58C5.03 23.14 4.51 23.9 4.24 24.75C3.96 25.61 3.94 26.52 4.17 27.39C4.41 28.26 4.89 29.04 5.56 29.64L14.97 37.88C15.33 38.19 15.59 38.59 15.74 39.04C15.88 39.49 15.91 39.98 15.8 40.44L13.03 52.62C12.83 53.5 12.88 54.42 13.2 55.27C13.51 56.12 14.07 56.86 14.8 57.39C15.54 57.93 16.41 58.23 17.31 58.27C18.22 58.31 19.12 58.08 19.89 57.61L28.24 52.64C28.47 52.5 28.62 52.28 28.69 52.03C28.75 51.77 28.71 51.5 28.57 51.28C28.44 51.05 28.22 50.89 27.97 50.82C27.72 50.76 27.45 50.79 27.22 50.92Z" fill="#232C31" fill-opacity="1.000000" fill-rule="nonzero"/>
	</g>
</svg>
