<svg width="64.000000" height="64.000000" viewBox="0 0 64 64" fill="none" xmlns="http://www.w3.org/2000/svg" xmlns:xlink="http://www.w3.org/1999/xlink">
	<desc>
			Created with Pixso.
	</desc>
	<defs>
		<clipPath id="clip233_1383">
			<rect id="profits 1" rx="0.000000" width="63.000000" height="63.000000" transform="translate(0.500000 0.500000)" fill="white" fill-opacity="0"/>
		</clipPath>
	</defs>
	<rect id="profits 1" rx="0.000000" width="63.000000" height="63.000000" transform="translate(0.500000 0.500000)" fill="#FFFFFF" fill-opacity="0"/>
	<g clip-path="url(#clip233_1383)">
		<path id="Vector" d="M57 5L7 5C6.2 5 5.44 5.31 4.88 5.88C4.31 6.44 4 7.2 4 8L4 56C4 56.79 4.31 57.55 4.88 58.11C5.44 58.68 6.2 58.99 7 59L57 59C57.79 58.99 58.55 58.68 59.11 58.11C59.68 57.55 59.99 56.79 60 56L60 8C59.99 7.2 59.68 6.44 59.11 5.88C58.55 5.31 57.79 5 57 5ZM58 56C57.99 56.26 57.89 56.51 57.7 56.7C57.51 56.89 57.26 56.99 57 57L7 57C6.73 56.99 6.48 56.89 6.29 56.7C6.1 56.51 6 56.26 6 56L6 19L58 19L58 56ZM58 17L6 17L6 8C6 7.73 6.1 7.48 6.29 7.29C6.48 7.1 6.73 7 7 7L57 7C57.26 7 57.51 7.1 57.7 7.29C57.89 7.48 57.99 7.73 58 8L58 17Z" fill="#232C31" fill-opacity="1.000000" fill-rule="nonzero"/>
		<path id="Vector" d="M14 12C14 13.1 13.1 14 12 14C10.89 14 10 13.1 10 12C10 10.89 10.89 10 12 10C13.1 10 14 10.89 14 12Z" fill="#232C31" fill-opacity="1.000000" fill-rule="evenodd"/>
		<path id="Vector" d="M22 12C22 13.1 21.1 14 20 14C18.89 14 18 13.1 18 12C18 10.89 18.89 10 20 10C21.1 10 22 10.89 22 12Z" fill="#232C31" fill-opacity="1.000000" fill-rule="evenodd"/>
		<path id="Vector" d="M30 12C30 13.1 29.1 14 28 14C26.89 14 26 13.1 26 12C26 10.89 26.89 10 28 10C29.1 10 30 10.89 30 12Z" fill="#232C31" fill-opacity="1.000000" fill-rule="evenodd"/>
		<path id="Vector" d="M12 46.65L52 46.65C52.26 46.65 52.51 46.54 52.7 46.35C52.89 46.17 53 45.91 53 45.65C53 45.38 52.89 45.13 52.7 44.94C52.51 44.75 52.26 44.65 52 44.65L49 44.65L49 29.46C49 29.2 48.89 28.95 48.7 28.76C48.51 28.57 48.26 28.46 48 28.46C47.73 28.46 47.48 28.57 47.29 28.76C47.1 28.95 47 29.2 47 29.46L47 44.65L41.05 44.65L41.05 34C41.05 33.73 40.95 33.48 40.76 33.29C40.57 33.1 40.32 33 40.05 33C39.79 33 39.53 33.1 39.34 33.29C39.16 33.48 39.05 33.73 39.05 34L39.05 44.65L33.01 44.65L33.01 32.19C33.01 31.93 32.91 31.67 32.72 31.49C32.53 31.3 32.28 31.19 32.01 31.19C31.75 31.19 31.49 31.3 31.31 31.49C31.12 31.67 31.01 31.93 31.01 32.19L31.01 44.65L24.98 44.65L24.98 36.16C24.98 35.89 24.87 35.64 24.68 35.45C24.5 35.27 24.24 35.16 23.98 35.16C23.71 35.16 23.46 35.27 23.27 35.45C23.08 35.64 22.98 35.89 22.98 36.16L22.98 44.65L16.94 44.65L16.94 38.98C16.94 38.71 16.83 38.46 16.65 38.27C16.46 38.08 16.2 37.98 15.94 37.98C15.67 37.98 15.42 38.08 15.23 38.27C15.04 38.46 14.94 38.71 14.94 38.98L14.94 44.65L12 44.65C11.73 44.65 11.48 44.75 11.29 44.94C11.1 45.13 11 45.38 11 45.65C11 45.91 11.1 46.17 11.29 46.35C11.48 46.54 11.73 46.65 12 46.65Z" fill="#00D3FF" fill-opacity="1.000000" fill-rule="nonzero"/>
		<path id="Vector" d="M52 11L40.05 11C39.79 11 39.53 11.1 39.34 11.29C39.16 11.48 39.05 11.73 39.05 12C39.05 12.26 39.16 12.51 39.34 12.7C39.53 12.89 39.79 13 40.05 13L52 13C52.26 13 52.51 12.89 52.7 12.7C52.89 12.51 53 12.26 53 12C53 11.73 52.89 11.48 52.7 11.29C52.51 11.1 52.26 11 52 11Z" fill="#232C31" fill-opacity="1.000000" fill-rule="nonzero"/>
	</g>
</svg>
