<svg width="46.000000" height="46.000000" viewBox="0 0 46 46" fill="none" xmlns="http://www.w3.org/2000/svg" xmlns:xlink="http://www.w3.org/1999/xlink">
	<desc>
			Created with Pixso.
	</desc>
	<defs/>
	<rect id="Компоненты 7" width="46.000000" height="46.000000" fill="#FFFFFF" fill-opacity="0"/>
	<circle id="Эллипс 1" cx="23.000000" cy="23.000000" r="23.000000" fill="#1BD5FF" fill-opacity="1.000000"/>
	<path id="Прямоугольник 5" d="M25 29.15L29.97 25L37.5 34.01L32.66 33.27L32.52 38.17L25 29.15Z" fill="#FFFFFF" fill-opacity="1.000000" fill-rule="evenodd"/>
	<path id="Прямоугольник 5" d="M20.5 29.15L15.52 25L8 34.01L12.84 33.27L12.97 38.17L20.5 29.15Z" fill="#FFFFFF" fill-opacity="1.000000" fill-rule="evenodd"/>
	<path id="Звезда 1" d="M21.34 10.13C21.07 11.42 19.51 11.93 18.54 11.04C17.18 9.79 15.09 11.31 15.85 12.99C16.4 14.18 15.43 15.52 14.12 15.37C12.29 15.16 11.5 17.61 13.1 18.52C14.24 19.17 14.24 20.82 13.1 21.47C11.5 22.38 12.29 24.83 14.12 24.62C15.43 24.47 16.4 25.81 15.85 27C15.09 28.68 17.18 30.2 18.54 28.95C19.51 28.06 21.07 28.57 21.34 29.86C21.71 31.67 24.28 31.67 24.65 29.86C24.92 28.57 26.48 28.06 27.45 28.95C28.81 30.2 30.9 28.68 30.14 27C29.59 25.81 30.56 24.47 31.87 24.62C33.7 24.83 34.49 22.38 32.89 21.47C31.75 20.82 31.75 19.17 32.89 18.52C34.5 17.61 33.7 15.16 31.87 15.37C30.56 15.52 29.59 14.18 30.14 12.99C30.9 11.31 28.81 9.79 27.45 11.04C26.48 11.93 24.92 11.42 24.65 10.13C24.28 8.32 21.71 8.32 21.34 10.13Z" fill="#FFFFFF" fill-opacity="1.000000" fill-rule="evenodd"/>
	<path id="Звезда 1" d="M24.65 10.13C24.28 8.32 21.71 8.32 21.34 10.13C21.07 11.42 19.51 11.93 18.54 11.04C17.18 9.79 15.09 11.31 15.85 12.99C16.4 14.18 15.43 15.52 14.12 15.37C12.29 15.16 11.5 17.61 13.1 18.52C14.24 19.17 14.24 20.82 13.1 21.47C11.5 22.38 12.29 24.83 14.12 24.62C15.43 24.47 16.4 25.81 15.85 27C15.09 28.68 17.18 30.2 18.54 28.95C19.51 28.06 21.07 28.57 21.34 29.86C21.71 31.67 24.28 31.67 24.65 29.86C24.92 28.57 26.48 28.06 27.45 28.95C28.81 30.2 30.9 28.68 30.14 27C29.59 25.81 30.56 24.47 31.87 24.62C33.7 24.83 34.49 22.38 32.89 21.47C31.75 20.82 31.75 19.17 32.89 18.52C34.5 17.61 33.7 15.16 31.87 15.37C30.56 15.52 29.59 14.18 30.14 12.99C30.9 11.31 28.81 9.79 27.45 11.04C26.48 11.93 24.92 11.42 24.65 10.13ZM26.5 9.2C25.73 5.37 20.27 5.37 19.49 9.2C16.61 6.56 12.19 9.77 13.81 13.32C9.93 12.88 8.25 18.07 11.64 20C8.25 21.92 9.93 27.11 13.81 26.67C12.19 30.22 16.61 33.43 19.49 30.79C20.27 34.62 25.73 34.62 26.5 30.79C29.38 33.43 33.8 30.22 32.18 26.67C36.06 27.11 37.74 21.92 34.35 20C37.74 18.07 36.06 12.88 32.18 13.32C33.8 9.77 29.38 6.56 26.5 9.2Z" fill="#1BD5FF" fill-opacity="1.000000" fill-rule="evenodd"/>
	<path id="1" d="M24.96 25.68L24.96 16.39Q24.96 15.9 24.83 15.52Q24.68 15.08 24.36 14.84Q24.25 14.76 24.13 14.7Q24.04 14.66 23.95 14.63Q23.56 14.53 23.09 14.69L20.21 15.7L19.88 17.92L22.22 17.1L22.28 26.62L24.96 25.68Z" fill="#1BD5FF" fill-opacity="1.000000" fill-rule="evenodd"/>
</svg>
