<svg width="55.000000" height="55.000000" viewBox="0 0 55 55" fill="none" xmlns="http://www.w3.org/2000/svg" xmlns:xlink="http://www.w3.org/1999/xlink">
	<desc>
			Created with Pixso.
	</desc>
	<defs>
		<clipPath id="clip2_752">
			<rect id="Поиск документов" width="40.000000" height="37.787716" transform="translate(7.000000 9.000000)" fill="white" fill-opacity="0"/>
		</clipPath>
	</defs>
	<rect id="Прямоугольник 2" x="1.000000" y="1.000000" rx="10.000000" width="53.000000" height="53.000000" stroke="#000000" stroke-opacity="1.000000" stroke-width="2.000000"/>
	<rect id="Прямоугольник 2" x="1.000000" y="1.000000" rx="10.000000" width="53.000000" height="53.000000" stroke="#000000" stroke-opacity="0.200000" stroke-width="2.000000"/>
	<g clip-path="url(#clip2_752)">
		<path id="path" d="M41.06 30.23L41.08 30.25C41.08 30.67 40.75 31 40.33 31C39.91 31 39.58 30.67 39.58 30.25L39.6 30.23L41.06 30.23ZM24.48 42.9L24.5 42.88C24.92 42.88 25.25 43.21 25.25 43.63C25.25 44.05 24.92 44.38 24.5 44.38L24.48 44.36L24.48 42.9Z" fill="#000000" fill-opacity="0" fill-rule="nonzero"/>
		<path id="path" d="M40.33 30.25L40.33 13.72C40.33 12.85 39.58 12.14 38.66 12.14L15.33 12.14C14.41 12.14 13.66 12.85 13.66 13.72L13.66 42.06C13.66 42.93 14.41 43.63 15.33 43.63L24.5 43.63" stroke="#00D3FF" stroke-opacity="1.000000" stroke-width="1.500000" stroke-linejoin="round" stroke-linecap="round"/>
		<path id="path" d="M21.18 19.17L21.16 19.19C20.74 19.19 20.41 18.86 20.41 18.44C20.41 18.02 20.74 17.69 21.16 17.69L21.18 17.71L21.18 19.17ZM32.81 17.71L32.83 17.69C33.25 17.69 33.58 18.02 33.58 18.44C33.58 18.86 33.25 19.19 32.83 19.19L32.81 19.17L32.81 17.71Z" fill="#000000" fill-opacity="0" fill-rule="nonzero"/>
		<path id="path" d="M21.16 18.44L32.83 18.44" stroke="#00D3FF" stroke-opacity="1.000000" stroke-width="1.500000" stroke-linejoin="round" stroke-linecap="round"/>
		<path id="path" d="M21.18 25.47L21.16 25.49C20.74 25.49 20.41 25.16 20.41 24.74C20.41 24.32 20.74 23.99 21.16 23.99L21.18 24.01L21.18 25.47ZM32.81 24.01L32.83 23.99C33.25 23.99 33.58 24.32 33.58 24.74C33.58 25.16 33.25 25.49 32.83 25.49L32.81 25.47L32.81 24.01Z" fill="#000000" fill-opacity="0" fill-rule="nonzero"/>
		<path id="path" d="M21.16 24.74L32.83 24.74" stroke="#00D3FF" stroke-opacity="1.000000" stroke-width="1.500000" stroke-linejoin="round" stroke-linecap="round"/>
		<path id="path" d="M21.18 31.77L21.16 31.79C20.74 31.79 20.41 31.46 20.41 31.04C20.41 30.62 20.74 30.29 21.16 30.29L21.18 30.31L21.18 31.77ZM26.14 30.31L26.16 30.29C26.58 30.29 26.91 30.62 26.91 31.04C26.91 31.46 26.58 31.79 26.16 31.79L26.14 31.77L26.14 30.31Z" fill="#000000" fill-opacity="0" fill-rule="nonzero"/>
		<path id="path" d="M21.16 31.04L26.16 31.04" stroke="#00D3FF" stroke-opacity="1.000000" stroke-width="1.500000" stroke-linejoin="round" stroke-linecap="round"/>
		<path id="path" d="M37.83 38.12C37.83 39.21 37.36 40.19 36.61 40.91C35.85 41.62 34.81 42.06 33.66 42.06C31.36 42.06 29.5 40.3 29.5 38.12C29.5 35.95 31.36 34.19 33.66 34.19C35.96 34.19 37.83 35.95 37.83 38.12Z" fill="#000000" fill-opacity="0" fill-rule="nonzero"/>
		<path id="path" d="M36.61 40.91C37.36 40.19 37.83 39.21 37.83 38.12C37.83 35.95 35.96 34.19 33.66 34.19C31.36 34.19 29.5 35.95 29.5 38.12C29.5 40.3 31.36 42.06 33.66 42.06C34.81 42.06 35.85 41.62 36.61 40.91ZM39.98 43.09L40.01 43.09C40.32 43.38 40.33 43.84 40.04 44.15C39.75 44.45 39.29 44.47 38.98 44.18L38.98 44.15L39.98 43.09Z" fill="#000000" fill-opacity="0" fill-rule="nonzero"/>
		<path id="path" d="M39.5 43.63L36.61 40.91M37.83 38.12C37.83 35.95 35.96 34.19 33.66 34.19C31.36 34.19 29.5 35.95 29.5 38.12C29.5 40.3 31.36 42.06 33.66 42.06C34.81 42.06 35.85 41.62 36.61 40.91C37.36 40.19 37.83 39.21 37.83 38.12Z" stroke="#00D3FF" stroke-opacity="1.000000" stroke-width="1.500000" stroke-linejoin="round" stroke-linecap="round"/>
	</g>
</svg>
