<svg width="55.000000" height="55.000000" viewBox="0 0 55 55" fill="none" xmlns="http://www.w3.org/2000/svg" xmlns:xlink="http://www.w3.org/1999/xlink">
	<desc>
			Created with Pixso.
	</desc>
	<defs/>
	<path id="Vector" d="M42.23 0L12.76 0C9.38 0 6.13 1.34 3.74 3.74C1.34 6.13 0 9.38 0 12.76L0 42.23C0 45.61 1.34 48.86 3.74 51.25C6.13 53.65 9.38 54.99 12.76 55L42.23 55C45.61 54.99 48.86 53.65 51.25 51.25C53.65 48.86 54.99 45.61 55 42.23L55 12.76C54.99 9.38 53.65 6.13 51.25 3.74C48.86 1.34 45.61 0 42.23 0ZM53.03 42.23C53.03 45.09 51.89 47.84 49.86 49.86C47.84 51.89 45.09 53.03 42.23 53.03L12.76 53.03C9.9 53.03 7.15 51.89 5.13 49.86C3.1 47.84 1.96 45.09 1.96 42.23L1.96 12.76C1.96 9.9 3.1 7.15 5.13 5.13C7.15 3.1 9.9 1.96 12.76 1.96L42.23 1.96C45.09 1.96 47.84 3.1 49.86 5.13C51.89 7.15 53.03 9.9 53.03 12.76L53.03 42.23Z" fill="#000000" fill-opacity="1.000000" fill-rule="nonzero"/>
	<path id="Vector" d="M19.9 18.44C19.9 18.7 19.8 18.95 19.61 19.14C19.43 19.32 19.18 19.42 18.92 19.43C17.29 19.43 15.97 20.74 15.97 22.37L15.97 42.01C15.97 42.27 15.87 42.52 15.68 42.7C15.5 42.88 15.25 42.98 14.99 42.98C14.73 42.98 14.49 42.88 14.3 42.7C14.12 42.52 14.01 42.27 14.01 42.01L14.01 22.37C14.01 20.74 12.69 19.43 11.06 19.43C10.81 19.42 10.56 19.32 10.38 19.13C10.2 18.95 10.1 18.7 10.1 18.44C10.1 18.19 10.2 17.94 10.38 17.75C10.56 17.57 10.81 17.47 11.06 17.46C12.69 17.46 14.01 16.14 14.01 14.51L14.01 10.59C14.01 10.33 14.12 10.08 14.3 9.9C14.49 9.72 14.73 9.62 14.99 9.62C15.25 9.62 15.5 9.72 15.68 9.9C15.87 10.08 15.97 10.33 15.97 10.59L15.97 14.51C15.97 16.14 17.29 17.46 18.92 17.46C19.18 17.46 19.43 17.57 19.61 17.75C19.8 17.93 19.9 18.18 19.9 18.44Z" fill="#00B3FF" fill-opacity="1.000000" fill-rule="nonzero"/>
	<path id="Vector" d="M43.47 22.37C43.47 22.63 43.37 22.88 43.19 23.07C43 23.25 42.75 23.35 42.49 23.35C40.87 23.35 39.55 24.67 39.55 26.3L39.55 42.01C39.54 42.27 39.44 42.52 39.25 42.7C39.07 42.88 38.82 42.98 38.56 42.98C38.31 42.98 38.06 42.88 37.88 42.7C37.69 42.52 37.59 42.27 37.58 42.01L37.58 26.3C37.58 24.67 36.26 23.35 34.64 23.35C34.37 23.35 34.13 23.25 33.94 23.07C33.76 22.88 33.65 22.63 33.65 22.37C33.65 22.11 33.76 21.86 33.94 21.68C34.13 21.49 34.37 21.39 34.64 21.39C36.26 21.39 37.58 20.07 37.58 18.44L37.58 10.59C37.59 10.33 37.69 10.08 37.87 9.9C38.06 9.72 38.31 9.62 38.56 9.62C38.82 9.62 39.07 9.72 39.25 9.9C39.44 10.08 39.54 10.33 39.55 10.59L39.55 18.44C39.55 20.07 40.87 21.39 42.49 21.39C42.75 21.39 43 21.49 43.19 21.68C43.37 21.86 43.47 22.11 43.47 22.37Z" fill="#00B3FF" fill-opacity="1.000000" fill-rule="nonzero"/>
	<path id="Vector" d="M31.69 26.3C31.69 26.56 31.58 26.81 31.4 26.99C31.22 27.18 30.97 27.28 30.71 27.28C29.08 27.28 27.76 28.6 27.76 30.23L27.76 42.01C27.76 42.27 27.65 42.52 27.47 42.7C27.28 42.88 27.04 42.98 26.78 42.98C26.52 42.98 26.27 42.88 26.09 42.7C25.91 42.52 25.8 42.27 25.8 42.01L25.8 30.23C25.8 28.6 24.48 27.28 22.85 27.28C22.59 27.28 22.35 27.17 22.16 26.99C21.98 26.81 21.88 26.56 21.88 26.3C21.88 26.04 21.98 25.79 22.16 25.61C22.35 25.43 22.59 25.32 22.85 25.32C24.48 25.32 25.8 24 25.8 22.37L25.8 10.59C25.8 10.33 25.91 10.08 26.09 9.9C26.27 9.72 26.52 9.62 26.78 9.62C27.04 9.62 27.28 9.72 27.47 9.9C27.65 10.08 27.76 10.33 27.76 10.59L27.76 22.37C27.76 24 29.08 25.32 30.71 25.32C30.97 25.32 31.22 25.42 31.4 25.61C31.58 25.79 31.69 26.04 31.69 26.3Z" fill="#00B3FF" fill-opacity="1.000000" fill-rule="nonzero"/>
</svg>
