<svg width="16.018555" height="16.000000" viewBox="0 0 16.0186 16" fill="none" xmlns="http://www.w3.org/2000/svg" xmlns:xlink="http://www.w3.org/1999/xlink">
	<desc>
			Created with Pixso.
	</desc>
	<defs>
		<clipPath id="clip5_666">
			<rect id="telegram (5) 1" rx="0.000000" width="15.018518" height="14.999999" transform="translate(0.500000 0.500000)" fill="white" fill-opacity="0"/>
		</clipPath>
	</defs>
	<rect id="telegram (5) 1" rx="0.000000" width="15.018518" height="14.999999" transform="translate(0.500000 0.500000)" fill="#FFFFFF" fill-opacity="0"/>
	<g clip-path="url(#clip5_666)">
		<path id="Vector" d="M6.28 10.12L6.02 13.84C6.39 13.84 6.56 13.68 6.76 13.48L8.53 11.78L12.22 14.48C12.89 14.85 13.37 14.66 13.55 13.86L15.97 2.54L15.97 2.54C16.18 1.54 15.61 1.15 14.95 1.4L0.74 6.83C-0.23 7.21 -0.22 7.75 0.57 7.99L4.21 9.12L12.64 3.85C13.04 3.59 13.4 3.73 13.11 3.99L6.28 10.12Z" fill="#039BE5" fill-opacity="1.000000" fill-rule="nonzero"/>
	</g>
</svg>
