<svg width="22.000000" height="22.000000" viewBox="0 0 22 22" fill="none" xmlns="http://www.w3.org/2000/svg" xmlns:xlink="http://www.w3.org/1999/xlink">
	<desc>
			Created with Pixso.
	</desc>
	<defs>
		<clipPath id="clip233_1238">
			<rect id="whatsapp (5) 1" width="22.000000" height="22.000000" fill="white" fill-opacity="0"/>
		</clipPath>
	</defs>
	<rect id="whatsapp (5) 1" width="22.000000" height="22.000000" fill="#000000" fill-opacity="0"/>
	<g clip-path="url(#clip233_1238)">
		<path id="Vector" d="M11 0L10.99 0C4.93 0 0 4.93 0 11C0 13.4 0.77 15.63 2.09 17.44L0.72 21.53L4.95 20.18C6.69 21.33 8.76 22 11 22C17.06 22 22 17.06 22 11C22 4.93 17.06 0 11 0Z" fill="#C5C5C5" fill-opacity="1.000000" fill-rule="nonzero"/>
		<path id="Vector" d="M17.4 15.53C17.13 16.28 16.08 16.9 15.24 17.08C14.66 17.2 13.91 17.3 11.39 16.25C8.15 14.91 6.07 11.63 5.91 11.42C5.75 11.2 4.6 9.68 4.6 8.1C4.6 6.52 5.41 5.75 5.73 5.42C5.99 5.15 6.43 5.03 6.85 5.03C6.99 5.03 7.11 5.03 7.22 5.04C7.55 5.05 7.71 5.07 7.92 5.58C8.19 6.22 8.83 7.8 8.91 7.96C8.99 8.12 9.07 8.34 8.96 8.56C8.85 8.78 8.76 8.87 8.6 9.06C8.44 9.25 8.28 9.39 8.12 9.59C7.97 9.77 7.81 9.95 7.99 10.28C8.18 10.59 8.83 11.65 9.78 12.5C11 13.59 12 13.94 12.36 14.09C12.62 14.2 12.94 14.17 13.13 13.96C13.38 13.7 13.68 13.26 13.99 12.83C14.21 12.51 14.49 12.48 14.78 12.59C15.08 12.69 16.65 13.47 16.97 13.63C17.3 13.79 17.51 13.87 17.59 14C17.66 14.14 17.66 14.78 17.4 15.53Z" fill="#1D1D1D" fill-opacity="1.000000" fill-rule="nonzero"/>
	</g>
</svg>
