<svg width="24.000000" height="24.000000" viewBox="0 0 24 24" fill="none" xmlns="http://www.w3.org/2000/svg" xmlns:xlink="http://www.w3.org/1999/xlink">
	<desc>
			Created with Pixso.
	</desc>
	<defs>
		<clipPath id="clip8_756">
			<rect id="Календарь" width="24.000000" height="24.000000" fill="white" fill-opacity="0"/>
		</clipPath>
	</defs>
	<g clip-path="url(#clip8_756)">
		<path id="path" d="M2.5 9.5L21.5 9.5L21.5 20C21.5 20.55 21.05 21 20.5 21L3.5 21C2.94 21 2.5 20.55 2.5 20L2.5 9.5Z" fill="#000000" fill-opacity="0" fill-rule="nonzero"/>
		<path id="path" d="M21.5 9.5L21.5 20C21.5 20.55 21.05 21 20.5 21L3.5 21C2.94 21 2.5 20.55 2.5 20L2.5 9.5L21.5 9.5Z" stroke="#808080" stroke-opacity="1.000000" stroke-width="1.500000" stroke-linejoin="round"/>
		<path id="path" d="M2.5 4.5C2.5 3.94 2.94 3.5 3.5 3.5L20.5 3.5C21.05 3.5 21.5 3.94 21.5 4.5L21.5 9.5L2.5 9.5L2.5 4.5Z" fill="#000000" fill-opacity="0" fill-rule="nonzero"/>
		<path id="path" d="M3.5 3.5L20.5 3.5C21.05 3.5 21.5 3.94 21.5 4.5L21.5 9.5L2.5 9.5L2.5 4.5C2.5 3.94 2.94 3.5 3.5 3.5Z" stroke="#808080" stroke-opacity="1.000000" stroke-width="1.500000" stroke-linejoin="round"/>
		<path id="path" d="M7.27 2.01L7.25 2C7.25 1.57 7.58 1.25 8 1.25C8.41 1.25 8.75 1.57 8.75 2L8.72 2.01L7.27 2.01ZM8.72 5.98L8.75 6C8.75 6.42 8.41 6.75 8 6.75C7.58 6.75 7.25 6.42 7.25 6L7.27 5.98L8.72 5.98Z" fill="#000000" fill-opacity="0" fill-rule="nonzero"/>
		<path id="path" d="M8 2L8 6" stroke="#808080" stroke-opacity="1.000000" stroke-width="1.500000" stroke-linejoin="round" stroke-linecap="round"/>
		<path id="path" d="M15.27 2.01L15.25 2C15.25 1.57 15.58 1.25 16 1.25C16.42 1.25 16.75 1.57 16.75 2L16.73 2.01L15.27 2.01ZM16.73 5.98L16.75 6C16.75 6.42 16.42 6.75 16 6.75C15.58 6.75 15.25 6.42 15.25 6L15.27 5.98L16.73 5.98Z" fill="#000000" fill-opacity="0" fill-rule="nonzero"/>
		<path id="path" d="M16 2L16 6" stroke="#808080" stroke-opacity="1.000000" stroke-width="1.500000" stroke-linejoin="round" stroke-linecap="round"/>
		<path id="path" d="M14.02 17.73L14 17.75C13.58 17.75 13.25 17.42 13.25 17C13.25 16.58 13.58 16.25 14 16.25L14.02 16.27L14.02 17.73ZM16.98 16.27L17 16.25C17.42 16.25 17.75 16.58 17.75 17C17.75 17.42 17.42 17.75 17 17.75L16.98 17.73L16.98 16.27Z" fill="#000000" fill-opacity="0" fill-rule="nonzero"/>
		<path id="path" d="M14 17L17 17" stroke="#808080" stroke-opacity="1.000000" stroke-width="1.500000" stroke-linejoin="round" stroke-linecap="round"/>
		<path id="path" d="M7.02 17.73L7 17.75C6.58 17.75 6.25 17.42 6.25 17C6.25 16.58 6.58 16.25 7 16.25L7.02 16.27L7.02 17.73ZM9.97 16.27L10 16.25C10.42 16.25 10.75 16.58 10.75 17C10.75 17.42 10.42 17.75 10 17.75L9.97 17.73L9.97 16.27Z" fill="#000000" fill-opacity="0" fill-rule="nonzero"/>
		<path id="path" d="M7 17L10 17" stroke="#808080" stroke-opacity="1.000000" stroke-width="1.500000" stroke-linejoin="round" stroke-linecap="round"/>
		<path id="path" d="M14.02 13.73L14 13.75C13.58 13.75 13.25 13.42 13.25 13C13.25 12.58 13.58 12.25 14 12.25L14.02 12.27L14.02 13.73ZM16.98 12.27L17 12.25C17.42 12.25 17.75 12.58 17.75 13C17.75 13.42 17.42 13.75 17 13.75L16.98 13.73L16.98 12.27Z" fill="#000000" fill-opacity="0" fill-rule="nonzero"/>
		<path id="path" d="M14 13L17 13" stroke="#808080" stroke-opacity="1.000000" stroke-width="1.500000" stroke-linejoin="round" stroke-linecap="round"/>
		<path id="path" d="M7.02 13.73L7 13.75C6.58 13.75 6.25 13.42 6.25 13C6.25 12.58 6.58 12.25 7 12.25L7.02 12.27L7.02 13.73ZM9.97 12.27L10 12.25C10.42 12.25 10.75 12.58 10.75 13C10.75 13.42 10.42 13.75 10 13.75L9.97 13.73L9.97 12.27Z" fill="#000000" fill-opacity="0" fill-rule="nonzero"/>
		<path id="path" d="M7 13L10 13" stroke="#808080" stroke-opacity="1.000000" stroke-width="1.500000" stroke-linejoin="round" stroke-linecap="round"/>
	</g>
</svg>
