<svg width="24.000000" height="24.000000" viewBox="0 0 24 24" fill="none" xmlns="http://www.w3.org/2000/svg" xmlns:xlink="http://www.w3.org/1999/xlink">
	<desc>
			Created with Pixso.
	</desc>
	<defs>
		<clipPath id="clip5_718">
			<rect id="Принять почту" width="24.000000" height="24.000000" fill="white" fill-opacity="0"/>
		</clipPath>
	</defs>
	<g clip-path="url(#clip5_718)">
		<path id="path" d="M22.73 11.98L22.75 12C22.75 12.42 22.42 12.75 22 12.75C21.58 12.75 21.25 12.42 21.25 12L21.27 11.98L22.73 11.98ZM11.98 18.77L12 18.75C12.42 18.75 12.75 19.08 12.75 19.5C12.75 19.92 12.42 20.25 12 20.25L11.98 20.23L11.98 18.77Z" fill="#000000" fill-opacity="0" fill-rule="nonzero"/>
		<path id="path" d="M22 12L22 4.5L12 4.5L2 4.5L2 12L2 19.5L12 19.5" stroke="#FFFFFF" stroke-opacity="1.000000" stroke-width="1.500000" stroke-linejoin="round" stroke-linecap="round"/>
		<path id="path" d="M15.02 17.73L15 17.75C14.58 17.75 14.25 17.42 14.25 17C14.25 16.58 14.58 16.25 15 16.25L15.02 16.27L15.02 17.73ZM21.98 16.27L22 16.25C22.42 16.25 22.75 16.58 22.75 17C22.75 17.42 22.42 17.75 22 17.75L21.98 17.73L21.98 16.27Z" fill="#000000" fill-opacity="0" fill-rule="nonzero"/>
		<path id="path" d="M15 17L22 17" stroke="#FFFFFF" stroke-opacity="1.000000" stroke-width="1.500000" stroke-linejoin="round" stroke-linecap="round"/>
		<path id="path" d="M16.96 13.99L16.96 13.96C17.26 13.67 17.73 13.67 18.03 13.96C18.32 14.26 18.32 14.73 18.03 15.03L18 15.03L16.96 13.99ZM18 18.96L18.03 18.96C18.32 19.26 18.32 19.73 18.03 20.03C17.73 20.32 17.26 20.32 16.96 20.03L16.96 20L18 18.96Z" fill="#000000" fill-opacity="0" fill-rule="nonzero"/>
		<path id="path" d="M17.5 14.5L15 17L17.5 19.5" stroke="#FFFFFF" stroke-opacity="1.000000" stroke-width="1.500000" stroke-linejoin="round" stroke-linecap="round"/>
		<path id="path" d="M1.57 5.09L1.55 5.1C1.21 4.84 1.14 4.38 1.39 4.05C1.65 3.71 2.11 3.64 2.45 3.89L2.45 3.92L1.57 5.09ZM21.54 3.92L21.55 3.89C21.88 3.64 22.34 3.71 22.6 4.05C22.85 4.38 22.78 4.84 22.45 5.1L22.42 5.09L21.54 3.92Z" fill="#000000" fill-opacity="0" fill-rule="nonzero"/>
		<path id="path" d="M2 4.5L12 12L22 4.5" stroke="#FFFFFF" stroke-opacity="1.000000" stroke-width="1.500000" stroke-linejoin="round" stroke-linecap="round"/>
	</g>
</svg>
