<svg width="9.211639" height="7.198174" viewBox="0 0 9.21164 7.19817" fill="none" xmlns="http://www.w3.org/2000/svg" xmlns:xlink="http://www.w3.org/1999/xlink">
	<desc>
			Created with Pixso.
	</desc>
	<defs/>
	<path id="Vector" d="M8.85 2.18L4.51 6.79C4.39 6.92 4.25 7.02 4.09 7.09C3.93 7.16 3.76 7.19 3.59 7.19L3.58 7.19C3.41 7.19 3.24 7.16 3.09 7.09C2.93 7.02 2.79 6.93 2.67 6.8L0.37 4.4C0.25 4.28 0.15 4.14 0.09 3.98C0.03 3.82 -0.01 3.65 3.05e-5 3.48C0 3.31 0.03 3.14 0.1 2.99C0.16 2.83 0.26 2.69 0.38 2.57C0.5 2.45 0.65 2.36 0.8 2.29C0.96 2.23 1.13 2.2 1.3 2.2C1.46 2.21 1.63 2.25 1.78 2.31C1.94 2.38 2.08 2.48 2.19 2.61L3.57 4.05L7 0.4C7.12 0.28 7.25 0.18 7.41 0.11C7.56 0.04 7.73 0 7.9 0C8.06 -0.01 8.23 0.02 8.39 0.08C8.55 0.14 8.69 0.23 8.81 0.35C8.93 0.47 9.03 0.61 9.1 0.76C9.17 0.92 9.2 1.09 9.21 1.26C9.21 1.43 9.18 1.6 9.12 1.76C9.06 1.91 8.96 2.06 8.85 2.18Z" fill="#232C31" fill-opacity="1.000000" fill-rule="nonzero"/>
</svg>
