<svg width="24.000000" height="24.000000" viewBox="0 0 24 24" fill="none" xmlns="http://www.w3.org/2000/svg" xmlns:xlink="http://www.w3.org/1999/xlink">
	<desc>
			Created with Pixso.
	</desc>
	<defs>
		<clipPath id="clip5_739">
			<rect id="Тетрадки и ручки" width="24.000000" height="24.000000" fill="white" fill-opacity="0"/>
		</clipPath>
	</defs>
	<g clip-path="url(#clip5_739)">
		<path id="path" d="M2 3L2 21L15 21L15 3L2 3Z" fill="#000000" fill-opacity="0" fill-rule="nonzero"/>
		<path id="path" d="M2 21L15 21L15 3L2 3L2 21Z" stroke="#FFFFFF" stroke-opacity="1.000000" stroke-width="1.500000" stroke-linejoin="round"/>
		<path id="path" d="M5.27 3.02L5.25 3C5.25 2.58 5.58 2.25 6 2.25C6.41 2.25 6.75 2.58 6.75 3L6.72 3.02L5.27 3.02ZM6.72 20.98L6.75 21C6.75 21.41 6.41 21.75 6 21.75C5.58 21.75 5.25 21.41 5.25 21L5.27 20.98L6.72 20.98Z" fill="#000000" fill-opacity="0" fill-rule="nonzero"/>
		<path id="path" d="M6 3L6 21" stroke="#FFFFFF" stroke-opacity="1.000000" stroke-width="1.500000" stroke-linejoin="round" stroke-linecap="round"/>
		<path id="path" d="M22 3L18 3L18 19L20 21L22 19L22 3Z" fill="#000000" fill-opacity="0" fill-rule="nonzero"/>
		<path id="path" d="M18 3L18 19L20 21L22 19L22 3L18 3Z" stroke="#FFFFFF" stroke-opacity="1.000000" stroke-width="1.500000" stroke-linejoin="round"/>
		<path id="path" d="M18.02 6.72L18 6.75C17.58 6.75 17.25 6.41 17.25 6C17.25 5.58 17.58 5.25 18 5.25L18.02 5.27L18.02 6.72ZM21.98 5.27L22 5.25C22.42 5.25 22.75 5.58 22.75 6C22.75 6.41 22.42 6.75 22 6.75L21.98 6.72L21.98 5.27Z" fill="#000000" fill-opacity="0" fill-rule="nonzero"/>
		<path id="path" d="M18 6L22 6" stroke="#FFFFFF" stroke-opacity="1.000000" stroke-width="1.500000" stroke-linejoin="round" stroke-linecap="round"/>
		<path id="path" d="M2.02 3.72L2 3.75C1.58 3.75 1.25 3.41 1.25 3C1.25 2.58 1.58 2.25 2 2.25L2.02 2.27L2.02 3.72ZM14.98 2.27L15 2.25C15.42 2.25 15.75 2.58 15.75 3C15.75 3.41 15.42 3.75 15 3.75L14.98 3.72L14.98 2.27Z" fill="#000000" fill-opacity="0" fill-rule="nonzero"/>
		<path id="path" d="M2 3L15 3" stroke="#FFFFFF" stroke-opacity="1.000000" stroke-width="1.500000" stroke-linejoin="round" stroke-linecap="round"/>
		<path id="path" d="M2.02 21.73L2 21.75C1.58 21.75 1.25 21.41 1.25 21C1.25 20.58 1.58 20.25 2 20.25L2.02 20.27L2.02 21.73ZM14.98 20.27L15 20.25C15.42 20.25 15.75 20.58 15.75 21C15.75 21.41 15.42 21.75 15 21.75L14.98 21.73L14.98 20.27Z" fill="#000000" fill-opacity="0" fill-rule="nonzero"/>
		<path id="path" d="M2 21L15 21" stroke="#FFFFFF" stroke-opacity="1.000000" stroke-width="1.500000" stroke-linejoin="round" stroke-linecap="round"/>
		<path id="path" d="M17.27 3.02L17.25 3C17.25 2.58 17.58 2.25 18 2.25C18.42 2.25 18.75 2.58 18.75 3L18.73 3.02L17.27 3.02ZM18.73 10.98L18.75 11C18.75 11.41 18.42 11.75 18 11.75C17.58 11.75 17.25 11.41 17.25 11L17.27 10.98L18.73 10.98Z" fill="#000000" fill-opacity="0" fill-rule="nonzero"/>
		<path id="path" d="M18 3L18 11" stroke="#FFFFFF" stroke-opacity="1.000000" stroke-width="1.500000" stroke-linejoin="round" stroke-linecap="round"/>
		<path id="path" d="M21.27 3.02L21.25 3C21.25 2.58 21.58 2.25 22 2.25C22.42 2.25 22.75 2.58 22.75 3L22.73 3.02L21.27 3.02ZM22.73 10.98L22.75 11C22.75 11.41 22.42 11.75 22 11.75C21.58 11.75 21.25 11.41 21.25 11L21.27 10.98L22.73 10.98Z" fill="#000000" fill-opacity="0" fill-rule="nonzero"/>
		<path id="path" d="M22 3L22 11" stroke="#FFFFFF" stroke-opacity="1.000000" stroke-width="1.500000" stroke-linejoin="round" stroke-linecap="round"/>
	</g>
</svg>
