<svg width="185.000000" height="99.000000" viewBox="0 0 185 99" fill="none" xmlns="http://www.w3.org/2000/svg" xmlns:xlink="http://www.w3.org/1999/xlink">
	<desc>
			Created with Pixso.
	</desc>
	<defs/>
	<path id="Tender" d="M23.76 17.43L23.76 11.5L0.58 11.5L0.58 17.43L9.04 17.43L9.04 43L15.26 43L15.26 17.43L23.76 17.43ZM97.82 11.5L92.02 11.5L92.02 23.15Q91.16 22.05 90.05 21.32Q87.87 19.87 84.72 19.87Q82.72 19.87 80.98 20.54Q78.77 21.39 76.97 23.31Q75.71 24.65 74.94 26.23Q73.75 28.7 73.75 31.75Q73.75 34.79 74.94 37.26Q75.71 38.84 76.97 40.18Q78.77 42.1 80.98 42.95Q82.72 43.62 84.72 43.62Q87.87 43.62 90.05 42.17Q91.16 41.44 92.02 40.34L92.02 43L97.82 43L97.82 11.5ZM29.28 36.78Q28.22 35.78 27.76 34.13L44.72 34.13Q44.95 32.87 44.95 31.75Q44.95 28.57 43.67 26.03Q42.92 24.55 41.73 23.29Q40.39 21.86 38.74 21.03Q36.45 19.87 33.57 19.87Q30.14 19.87 27.52 21.33Q26.16 22.1 25.01 23.26Q23.74 24.56 22.95 26.11Q21.68 28.61 21.68 31.75Q21.68 34.94 22.99 37.46Q23.79 38.98 25.06 40.25Q25.89 41.08 26.85 41.7Q29.81 43.62 34.01 43.62Q38.01 43.62 40.81 41.79Q42.55 40.65 43.82 38.81L39.14 36.11Q38.63 36.78 37.98 37.25Q36.44 38.36 34.11 38.36Q30.95 38.36 29.28 36.78ZM65.54 20.79Q63.76 19.87 61.51 19.87Q58.26 19.87 56.25 21.44Q55.42 22.09 54.8 23.01L54.8 20.5L49 20.5L49 43L54.8 43L54.8 30.84Q54.8 28.05 56.16 26.66Q56.51 26.29 56.93 26.02Q58.1 25.26 59.76 25.26Q61.35 25.26 62.43 26Q62.73 26.2 62.99 26.46Q63.09 26.56 63.19 26.67Q64.21 27.84 64.21 29.9L64.21 43L70.01 43L70.01 29.19Q70.01 25.32 68.13 22.94Q67.88 22.63 67.6 22.34Q66.67 21.38 65.54 20.79ZM109.56 36.78Q108.5 35.78 108.04 34.13L125 34.13Q125.23 32.87 125.23 31.75Q125.23 28.57 123.95 26.03Q123.2 24.55 122.01 23.29Q120.67 21.86 119.02 21.03Q116.73 19.87 113.85 19.87Q110.42 19.87 107.8 21.33Q106.44 22.1 105.29 23.26Q104.02 24.56 103.23 26.11Q101.96 28.61 101.96 31.75Q101.96 34.94 103.27 37.46Q104.07 38.98 105.34 40.25Q106.17 41.08 107.14 41.7Q110.09 43.62 114.29 43.62Q118.29 43.62 121.09 41.79Q122.83 40.65 124.1 38.81L119.42 36.11Q118.91 36.78 118.26 37.25Q116.72 38.36 114.39 38.36Q111.23 38.36 109.56 36.78ZM136.57 22.04Q135.61 22.98 135.08 24.36L135.08 20.5L129.28 20.5L129.28 43L135.08 43L135.08 32.24Q135.08 29.74 136.32 28.34Q136.69 27.92 137.17 27.6Q137.96 27.08 138.82 26.8Q140.26 26.33 141.93 26.53L141.93 20.04Q140.28 20.04 138.85 20.61Q138.29 20.83 137.77 21.13Q137.1 21.52 136.57 22.04ZM39.14 29.62L27.67 29.62Q28.06 27.93 29.08 26.84Q29.36 26.54 29.69 26.28Q29.84 26.17 30 26.06Q31.46 25.09 33.57 25.09Q34.71 25.09 35.72 25.47Q36.44 25.74 37.1 26.22Q37.3 26.37 37.49 26.54Q38.71 27.64 39.14 29.62ZM119.42 29.62L107.95 29.62Q108.34 27.93 109.36 26.84Q109.64 26.54 109.97 26.28Q110.12 26.17 110.28 26.06Q111.74 25.09 113.85 25.09Q115 25.09 116 25.47Q116.72 25.74 117.38 26.22Q117.58 26.37 117.77 26.54Q118.99 27.64 119.42 29.62ZM82.81 37.41Q82.01 36.99 81.33 36.32Q80.75 35.73 80.36 35.04Q79.55 33.62 79.55 31.75Q79.55 29.87 80.36 28.45Q80.75 27.76 81.33 27.17Q82.01 26.5 82.81 26.08Q84.14 25.39 85.81 25.39Q87.52 25.39 88.85 26.11Q89.62 26.52 90.26 27.17Q90.81 27.73 91.19 28.39Q92.02 29.83 92.02 31.75Q92.02 33.66 91.19 35.1Q90.81 35.76 90.26 36.32Q89.62 36.97 88.85 37.38Q87.52 38.1 85.81 38.1Q84.14 38.1 82.81 37.41Z" fill="#FFFFFF" fill-opacity="1.000000" fill-rule="evenodd"/>
	<path id="Plus" d="M129.2 54.15L129.2 87L135 87L135 54.15L129.2 54.15ZM119.4 56.51Q117.27 55.5 114.66 55.5L102.92 55.5L102.92 87L109.13 87L109.13 76.65L114.66 76.65Q117.29 76.65 119.43 75.63Q121 74.88 122.31 73.59Q123.76 72.16 124.54 70.42Q125.42 68.44 125.42 66.08Q125.42 63.67 124.52 61.68Q123.74 59.97 122.31 58.56Q120.99 57.26 119.4 56.51ZM116.74 70.38Q115.82 70.85 114.66 70.85L109.13 70.85L109.13 61.3L114.66 61.3Q115.85 61.3 116.79 61.78Q117.42 62.1 117.95 62.65Q118.39 63.1 118.68 63.64Q119.25 64.69 119.25 66.07Q119.25 67.34 118.74 68.35Q118.44 68.96 117.95 69.47Q117.41 70.05 116.74 70.38ZM171.5 71.24Q171.45 71.07 171.45 70.89Q171.45 70.49 171.61 70.18Q171.79 69.8 172.19 69.54Q172.94 69.04 174.07 69.04Q175.31 69.04 176.2 69.6Q177.12 70.18 177.66 71.34L182.62 68.64Q181.84 67.27 180.72 66.27Q179.96 65.61 179.06 65.11Q178.55 64.83 178.01 64.61Q176.19 63.87 174.07 63.87Q170.95 63.87 168.7 65.27Q168.32 65.5 167.96 65.78Q166.95 66.57 166.36 67.59Q165.51 69.06 165.51 71.02Q165.51 72.85 166.33 74.17Q166.5 74.44 166.71 74.69Q167.45 75.59 168.38 76.2Q168.96 76.57 169.61 76.83Q171.32 77.5 173.03 77.95Q174.74 78.4 175.93 78.96Q176.89 79.41 177.08 80.08Q177.12 80.25 177.12 80.43Q177.12 80.97 176.88 81.36Q176.25 82.36 174.03 82.36Q172.05 82.36 170.88 81.39Q170.03 80.67 169.61 79.44L164.57 82.27Q165.49 84.22 166.99 85.46Q169.62 87.62 174.03 87.62Q177.76 87.62 180.3 85.87Q180.39 85.82 180.47 85.75Q181.52 85 182.15 83.98Q183.07 82.49 183.07 80.43Q183.07 78.42 182.16 77.01Q182.02 76.8 181.87 76.6Q181.06 75.56 180.01 74.93Q179.51 74.63 178.97 74.43Q177.26 73.77 175.54 73.34Q173.84 72.91 172.64 72.35Q171.69 71.9 171.5 71.24ZM160.97 64.5L155.16 64.5L155.16 76.65Q155.16 79.44 153.81 80.83Q153.46 81.2 153.05 81.46Q151.88 82.23 150.22 82.23Q148.59 82.23 147.49 81.47Q147.21 81.28 146.97 81.04Q146.87 80.95 146.79 80.85Q145.76 79.67 145.76 77.59L145.76 64.5L139.96 64.5L139.96 78.3Q139.96 82.17 141.84 84.55Q142.08 84.86 142.36 85.15Q143.3 86.11 144.43 86.7Q146.2 87.62 148.46 87.62Q151.73 87.62 153.73 86.03Q154.55 85.39 155.16 84.48L155.16 87L160.97 87L160.97 64.5Z" fill="#FFFAFA" fill-opacity="1.000000" fill-rule="evenodd"/>
	<path id="+" d="M169.14 43.49L169.14 37.45L160.89 37.45L160.89 29.25L154.85 29.25L154.85 37.45L146.64 37.45L146.64 43.49L154.85 43.49L154.85 51.75L160.89 51.75L160.89 43.49L169.14 43.49Z" fill="#00D3FF" fill-opacity="1.000000" fill-rule="evenodd"/>
</svg>
