<svg width="213.000000" height="100.000000" viewBox="0 0 213 100" fill="none" xmlns="http://www.w3.org/2000/svg" xmlns:xlink="http://www.w3.org/1999/xlink">
	<desc>
			Created with Pixso.
	</desc>
	<defs/>
	<rect id="Компоненты 10" width="213.000000" height="100.000000" fill="#FFFFFF" fill-opacity="0"/>
	<path id="+" d="M191.95 45.45L191.95 37.55L183.94 37.55L183.94 29.54L176.04 29.54L176.04 37.55L168.05 37.55L168.05 45.45L176.04 45.45L176.04 53.44L183.94 53.44L183.94 45.45L191.95 45.45Z" fill="#32ACDF" fill-opacity="1.000000" fill-rule="evenodd"/>
	<path id="Tender" d="M25.14 21.22L25.14 13.1L0.47 13.1L0.47 21.22L8.6 21.22L8.6 46L17.01 46L17.01 21.22L25.14 21.22ZM109.31 13.1L101.51 13.1L101.51 24.65Q100.81 23.82 99.94 23.24Q97.86 21.84 94.84 21.84Q92.58 21.84 90.66 22.66Q88.61 23.55 86.96 25.39Q86.05 26.4 85.41 27.56Q83.79 30.45 83.79 34.25Q83.79 38.04 85.41 40.93Q86.05 42.09 86.96 43.1Q88.61 44.94 90.66 45.83Q92.58 46.65 94.84 46.65Q97.86 46.65 99.94 45.25Q100.81 44.67 101.51 43.84L101.51 46L109.31 46L109.31 13.1ZM34.09 38.52Q33.51 37.93 33.18 37.11L49.39 37.11Q49.73 35.75 49.73 34.2Q49.73 30.83 48.34 28.17Q47.55 26.65 46.29 25.36Q44.97 24 43.36 23.16Q40.82 21.84 37.6 21.84Q34.13 21.84 31.43 23.29Q29.9 24.11 28.61 25.41Q27.2 26.84 26.36 28.55Q25.09 31.1 25.09 34.29Q25.09 37.55 26.42 40.13Q27.28 41.78 28.68 43.15Q29.43 43.88 30.29 44.46Q33.53 46.65 38.25 46.65Q43.03 46.65 46.17 44.38Q47.39 43.5 48.36 42.28L42.71 38.33Q42.03 38.99 41.21 39.38Q39.98 39.98 38.45 39.98Q35.52 39.98 34.09 38.52ZM73.86 22.8Q72.06 21.84 69.74 21.84Q66.61 21.84 64.64 23.36Q63.83 23.97 63.22 24.85L63.22 22.5L55.41 22.5L55.41 46L63.22 46L63.22 33.49Q63.22 31.42 64.23 30.32Q64.44 30.09 64.68 29.91Q65.61 29.22 67.06 29.22Q68.34 29.22 69.21 29.81Q69.43 29.97 69.63 30.16Q69.68 30.21 69.74 30.27Q70.59 31.21 70.59 32.93L70.59 46L78.4 46L78.4 31.94Q78.4 27.05 75.98 24.45Q75.02 23.42 73.86 22.8ZM124 38.52Q123.43 37.93 123.09 37.11L139.3 37.11Q139.64 35.75 139.64 34.2Q139.64 30.83 138.25 28.17Q137.46 26.65 136.21 25.36Q134.88 24 133.27 23.16Q130.74 21.84 127.51 21.84Q124.04 21.84 121.35 23.29Q119.81 24.11 118.52 25.41Q117.11 26.84 116.27 28.55Q115 31.1 115 34.29Q115 37.55 116.33 40.13Q117.19 41.78 118.59 43.15Q119.35 43.88 120.2 44.46Q123.44 46.65 128.16 46.65Q132.94 46.65 136.08 44.38Q137.3 43.5 138.27 42.28L132.63 38.33Q131.94 38.99 131.13 39.38Q129.89 39.98 128.36 39.98Q125.43 39.98 124 38.52ZM154.23 24.66Q153.48 25.61 153.13 26.87L153.13 22.5L145.32 22.5L145.32 46L153.13 46L153.13 36.26Q153.13 33.98 154.25 32.61Q154.69 32.06 155.31 31.66Q156.2 31.08 157.18 30.81Q158.59 30.43 160.17 30.68L160.17 22.02Q158.65 22.02 157.31 22.52Q156.5 22.82 155.75 23.3Q154.86 23.87 154.23 24.66ZM40.58 29.27Q41.65 30.1 42.11 31.71L33.09 31.71Q33.55 30.18 34.57 29.36Q35.75 28.42 37.69 28.42Q39.46 28.42 40.58 29.27ZM130.49 29.27Q131.56 30.1 132.02 31.71L123 31.71Q123.46 30.18 124.48 29.36Q125.67 28.42 127.6 28.42Q129.37 28.42 130.49 29.27ZM93.92 38.69Q93.43 38.39 93.01 37.96Q92.7 37.64 92.46 37.28Q91.64 36.03 91.64 34.25Q91.64 32.45 92.47 31.2Q92.7 30.85 93.01 30.54Q93.44 30.09 93.95 29.79Q95.07 29.13 96.58 29.13Q98.12 29.13 99.25 29.81Q99.73 30.11 100.14 30.54Q100.45 30.85 100.68 31.2Q101.51 32.45 101.51 34.25Q101.51 36.03 100.69 37.28Q100.45 37.64 100.14 37.96Q99.75 38.37 99.27 38.67Q98.14 39.36 96.58 39.36Q95.05 39.36 93.92 38.69Z" fill="#232C31" fill-opacity="1.000000" fill-rule="evenodd"/>
	<path id="Plus" d="M145.84 52.69L145.84 87L153.64 87L153.64 52.69L145.84 52.69ZM132.88 55.32Q130.42 54.1 127.36 54.1L114.58 54.1L114.58 87L122.99 87L122.99 77.13L127.36 77.13Q130.44 77.13 132.9 75.89Q134.43 75.13 135.72 73.89Q137.04 72.63 137.84 71.1Q139.11 68.69 139.11 65.62Q139.11 62.51 137.82 60.09Q137.02 58.58 135.72 57.34Q134.42 56.09 132.88 55.32ZM128.75 68.85Q128.12 69.14 127.36 69.14L122.99 69.14L122.99 62.13L127.36 62.13Q128.15 62.13 128.8 62.43Q129.31 62.67 129.74 63.09Q130.01 63.37 130.21 63.7Q130.7 64.5 130.7 65.61Q130.7 66.68 130.24 67.49Q130.03 67.85 129.74 68.15Q129.29 68.61 128.75 68.85ZM200.23 70.49Q200.22 70.42 200.22 70.36Q200.22 70.02 200.37 69.79Q200.73 69.23 201.95 69.23Q202.58 69.23 203.11 69.46Q204.17 69.9 204.86 71.25L211.45 68.29Q210.41 66.21 208.74 64.92Q206.06 62.84 201.77 62.84Q198.67 62.84 196.28 64.14Q195.66 64.48 195.09 64.91Q194 65.72 193.34 66.79Q192.32 68.45 192.32 70.74Q192.32 72.73 193.21 74.19Q193.34 74.41 193.49 74.61Q194.39 75.81 195.58 76.51Q195.95 76.73 196.36 76.9Q198.05 77.6 199.73 78.02Q201.43 78.45 202.6 78.87Q203.65 79.24 203.77 79.8Q203.78 79.87 203.78 79.95Q203.78 80.28 203.64 80.53Q203.23 81.21 201.67 81.21Q200.25 81.21 199.32 80.54Q198.44 79.89 198 78.63L191.19 82.06Q191.96 83.71 193.2 84.87Q196.15 87.65 201.72 87.65Q205.57 87.65 208.45 85.97Q208.65 85.85 208.86 85.72Q209.98 85.01 210.68 84Q211.87 82.29 211.87 79.75Q211.87 77.33 210.73 75.71Q210.7 75.67 210.67 75.62Q209.72 74.3 208.43 73.61Q208.1 73.43 207.75 73.29Q206.05 72.62 204.32 72.24Q202.61 71.86 201.41 71.44Q200.34 71.05 200.23 70.49ZM184.61 63.5L176.81 63.5L176.81 76Q176.81 78.07 175.8 79.17Q175.6 79.39 175.36 79.57Q174.42 80.27 172.95 80.27Q171.7 80.27 170.84 79.69Q170.6 79.53 170.39 79.33Q170.34 79.28 170.29 79.22Q169.43 78.28 169.43 76.56L169.43 63.5L161.63 63.5L161.63 77.55Q161.63 82.44 164.05 85.04Q165 86.07 166.17 86.69Q167.97 87.65 170.28 87.65Q173.41 87.65 175.39 86.14Q176.2 85.52 176.81 84.64L176.81 87L184.61 87L184.61 63.5Z" fill="#232C31" fill-opacity="1.000000" fill-rule="evenodd"/>
</svg>
